<svg id="visual" viewBox="0 0 675 900" width="675" height="900" xmlns="http://www.w3.org/2000/svg" xmlns:xlink="http://www.w3.org/1999/xlink" version="1.1"><g stroke-width="1" stroke-linejoin="bevel"><path d="M345 413L323.3 396.3L305.3 411.3Z" fill="#022d4e" stroke="#022d4e"></path><path d="M305.3 411.3L308 429.3L345 413Z" fill="#1e648c" stroke="#1e648c"></path><path d="M308 429.3L317 444L345 413Z" fill="#216d94" stroke="#216d94"></path><path d="M317 444L320.3 449L345 413Z" fill="#124c71" stroke="#124c71"></path><path d="M405.5 416.3L369 385.7L345 413Z" fill="#25759d" stroke="#25759d"></path><path d="M345 413L369 385.7L323.3 396.3Z" fill="#022d4e" stroke="#022d4e"></path><path d="M281.3 374.7L305.3 411.3L323.3 396.3Z" fill="#16547a" stroke="#16547a"></path><path d="M281.3 374.7L275.5 390L305.3 411.3Z" fill="#216d94" stroke="#216d94"></path><path d="M305.3 411.3L267.5 421.3L308 429.3Z" fill="#053457" stroke="#053457"></path><path d="M308 429.3L276 448.3L317 444Z" fill="#1a5c83" stroke="#1a5c83"></path><path d="M317 444L276 448.3L320.3 449Z" fill="#1e648c" stroke="#1e648c"></path><path d="M275.5 390L267.5 421.3L305.3 411.3Z" fill="#297ea6" stroke="#297ea6"></path><path d="M320.3 449L361.3 461.7L345 413Z" fill="#1e648c" stroke="#1e648c"></path><path d="M267.5 421.3L276 448.3L308 429.3Z" fill="#053457" stroke="#053457"></path><path d="M320.3 449L355.5 469.3L361.3 461.7Z" fill="#0e4468" stroke="#0e4468"></path><path d="M300.5 339L281.3 374.7L323.3 396.3Z" fill="#022d4e" stroke="#022d4e"></path><path d="M323.8 497.3L355.5 469.3L320.3 449Z" fill="#297ea6" stroke="#297ea6"></path><path d="M230.8 397.3L259 402L253.8 345.3Z" fill="#1a5c83" stroke="#1a5c83"></path><path d="M275.5 390L259 402L267.5 421.3Z" fill="#25759d" stroke="#25759d"></path><path d="M241.3 423.3L274.8 469L276 448.3Z" fill="#124c71" stroke="#124c71"></path><path d="M355.5 469.3L379.5 459.3L361.3 461.7Z" fill="#1a5c83" stroke="#1a5c83"></path><path d="M361.3 461.7L379.5 459.3L345 413Z" fill="#053457" stroke="#053457"></path><path d="M241.3 423.3L276 448.3L267.5 421.3Z" fill="#124c71" stroke="#124c71"></path><path d="M276 448.3L274.8 469L320.3 449Z" fill="#053457" stroke="#053457"></path><path d="M405.5 416.3L377.8 366.3L369 385.7Z" fill="#1e648c" stroke="#1e648c"></path><path d="M369 385.7L377.8 366.3L323.3 396.3Z" fill="#1e648c" stroke="#1e648c"></path><path d="M274.8 469L283.3 483.7L320.3 449Z" fill="#053457" stroke="#053457"></path><path d="M379.5 459.3L405.5 416.3L345 413Z" fill="#216d94" stroke="#216d94"></path><path d="M306.5 500.3L323.8 497.3L320.3 449Z" fill="#1e648c" stroke="#1e648c"></path><path d="M403.3 521.3L420.8 498.3L379.5 459.3Z" fill="#1e648c" stroke="#1e648c"></path><path d="M377.8 366.3L300.5 339L323.3 396.3Z" fill="#216d94" stroke="#216d94"></path><path d="M230.8 397.3L238.5 415.7L259 402Z" fill="#1a5c83" stroke="#1a5c83"></path><path d="M238.5 415.7L241.3 423.3L259 402Z" fill="#093c5f" stroke="#093c5f"></path><path d="M259 402L241.3 423.3L267.5 421.3Z" fill="#0e4468" stroke="#0e4468"></path><path d="M274.8 469L272.5 499L283.3 483.7Z" fill="#053457" stroke="#053457"></path><path d="M283.3 483.7L306.5 500.3L320.3 449Z" fill="#16547a" stroke="#16547a"></path><path d="M259 402L275.5 390L253.8 345.3Z" fill="#093c5f" stroke="#093c5f"></path><path d="M295.5 528.7L342.5 502L323.8 497.3Z" fill="#216d94" stroke="#216d94"></path><path d="M323.8 497.3L342.5 502L355.5 469.3Z" fill="#124c71" stroke="#124c71"></path><path d="M253.8 345.3L275.5 390L281.3 374.7Z" fill="#297ea6" stroke="#297ea6"></path><path d="M238.5 415.7L196.3 434.7L241.3 423.3Z" fill="#25759d" stroke="#25759d"></path><path d="M231 510.7L272.5 499L274.8 469Z" fill="#124c71" stroke="#124c71"></path><path d="M283.3 483.7L272.5 499L306.5 500.3Z" fill="#124c71" stroke="#124c71"></path><path d="M306.5 500.3L295.5 528.7L323.8 497.3Z" fill="#022d4e" stroke="#022d4e"></path><path d="M300.5 339L253.8 345.3L281.3 374.7Z" fill="#053457" stroke="#053457"></path><path d="M427.5 373.7L390.8 339.3L377.8 366.3Z" fill="#297ea6" stroke="#297ea6"></path><path d="M370.3 319.7L318.8 312L300.5 339Z" fill="#216d94" stroke="#216d94"></path><path d="M370.3 319.7L300.5 339L377.8 366.3Z" fill="#216d94" stroke="#216d94"></path><path d="M281.5 289.3L237.5 317.3L253.8 345.3Z" fill="#25759d" stroke="#25759d"></path><path d="M390.8 339.3L370.3 319.7L377.8 366.3Z" fill="#0e4468" stroke="#0e4468"></path><path d="M448.5 380L430.5 382.7L458.3 394Z" fill="#216d94" stroke="#216d94"></path><path d="M405.5 416.3L427.5 373.7L377.8 366.3Z" fill="#1a5c83" stroke="#1a5c83"></path><path d="M430.5 382.7L427.5 373.7L405.5 416.3Z" fill="#093c5f" stroke="#093c5f"></path><path d="M390.8 339.3L434.3 319L370.3 319.7Z" fill="#16547a" stroke="#16547a"></path><path d="M272.5 499L295.5 528.7L306.5 500.3Z" fill="#297ea6" stroke="#297ea6"></path><path d="M441.3 367.3L433.5 363L427.5 373.7Z" fill="#25759d" stroke="#25759d"></path><path d="M427.5 373.7L433.5 363L390.8 339.3Z" fill="#1e648c" stroke="#1e648c"></path><path d="M253.8 345.3L214 366.3L230.8 397.3Z" fill="#124c71" stroke="#124c71"></path><path d="M191.3 417L196.3 434.7L238.5 415.7Z" fill="#216d94" stroke="#216d94"></path><path d="M212.3 503.7L231 510.7L274.8 469Z" fill="#25759d" stroke="#25759d"></path><path d="M385 257.3L349 296L370.3 319.7Z" fill="#297ea6" stroke="#297ea6"></path><path d="M370.3 319.7L349 296L318.8 312Z" fill="#1a5c83" stroke="#1a5c83"></path><path d="M281.5 289.3L253.8 345.3L300.5 339Z" fill="#1a5c83" stroke="#1a5c83"></path><path d="M214 366.3L205 386L230.8 397.3Z" fill="#0e4468" stroke="#0e4468"></path><path d="M272.5 499L276.8 532.7L295.5 528.7Z" fill="#16547a" stroke="#16547a"></path><path d="M231 510.7L276.8 532.7L272.5 499Z" fill="#16547a" stroke="#16547a"></path><path d="M403.3 521.3L379.5 459.3L355.5 469.3Z" fill="#124c71" stroke="#124c71"></path><path d="M379.5 459.3L420.8 498.3L405.5 416.3Z" fill="#1e648c" stroke="#1e648c"></path><path d="M430.5 382.7L441.3 367.3L427.5 373.7Z" fill="#1a5c83" stroke="#1a5c83"></path><path d="M403.3 521.3L355.5 469.3L342.5 502Z" fill="#1a5c83" stroke="#1a5c83"></path><path d="M448.5 380L441.3 367.3L430.5 382.7Z" fill="#022d4e" stroke="#022d4e"></path><path d="M433.5 363L434.3 319L390.8 339.3Z" fill="#297ea6" stroke="#297ea6"></path><path d="M458.3 394L430.5 382.7L405.5 416.3Z" fill="#297ea6" stroke="#297ea6"></path><path d="M191.3 417L238.5 415.7L230.8 397.3Z" fill="#1a5c83" stroke="#1a5c83"></path><path d="M355.8 552L342.5 502L295.5 528.7Z" fill="#022d4e" stroke="#022d4e"></path><path d="M376.5 545.7L403.3 521.3L342.5 502Z" fill="#022d4e" stroke="#022d4e"></path><path d="M281.5 289.3L300.5 339L318.8 312Z" fill="#022d4e" stroke="#022d4e"></path><path d="M253.8 345.3L202.8 353.7L214 366.3Z" fill="#16547a" stroke="#16547a"></path><path d="M212.3 503.7L274.8 469L241.3 423.3Z" fill="#124c71" stroke="#124c71"></path><path d="M205 386L191.3 417L230.8 397.3Z" fill="#25759d" stroke="#25759d"></path><path d="M306.8 272.7L281.5 289.3L318.8 312Z" fill="#216d94" stroke="#216d94"></path><path d="M472.8 442.7L458.3 394L405.5 416.3Z" fill="#022d4e" stroke="#022d4e"></path><path d="M448.5 380L456 359.3L441.3 367.3Z" fill="#16547a" stroke="#16547a"></path><path d="M237.5 317.3L202.8 353.7L253.8 345.3Z" fill="#297ea6" stroke="#297ea6"></path><path d="M214 366.3L193.5 355.3L205 386Z" fill="#053457" stroke="#053457"></path><path d="M130.8 387L165.5 428.3L191.3 417Z" fill="#1a5c83" stroke="#1a5c83"></path><path d="M265 547.7L274.5 545.3L276.8 532.7Z" fill="#022d4e" stroke="#022d4e"></path><path d="M276.8 532.7L274.5 545.3L295.5 528.7Z" fill="#1e648c" stroke="#1e648c"></path><path d="M325 574.3L355.8 552L295.5 528.7Z" fill="#216d94" stroke="#216d94"></path><path d="M355.8 552L376.5 545.7L342.5 502Z" fill="#216d94" stroke="#216d94"></path><path d="M212.3 503.7L229.3 520L231 510.7Z" fill="#297ea6" stroke="#297ea6"></path><path d="M231 510.7L229.3 520L276.8 532.7Z" fill="#1a5c83" stroke="#1a5c83"></path><path d="M177 451L212.3 503.7L196.3 434.7Z" fill="#053457" stroke="#053457"></path><path d="M196.3 434.7L212.3 503.7L241.3 423.3Z" fill="#053457" stroke="#053457"></path><path d="M458.3 394L456 359.3L448.5 380Z" fill="#1e648c" stroke="#1e648c"></path><path d="M441.3 367.3L456 359.3L433.5 363Z" fill="#053457" stroke="#053457"></path><path d="M336.8 586L360.3 556L355.8 552Z" fill="#1a5c83" stroke="#1a5c83"></path><path d="M355.8 552L360.3 556L376.5 545.7Z" fill="#216d94" stroke="#216d94"></path><path d="M248.3 545.3L265 547.7L276.8 532.7Z" fill="#1a5c83" stroke="#1a5c83"></path><path d="M274.5 545.3L325 574.3L295.5 528.7Z" fill="#1e648c" stroke="#1e648c"></path><path d="M205.5 289.7L193.5 355.3L202.8 353.7Z" fill="#093c5f" stroke="#093c5f"></path><path d="M202.8 353.7L193.5 355.3L214 366.3Z" fill="#16547a" stroke="#16547a"></path><path d="M349 296L306.8 272.7L318.8 312Z" fill="#022d4e" stroke="#022d4e"></path><path d="M281.5 289.3L248.5 290.7L237.5 317.3Z" fill="#1e648c" stroke="#1e648c"></path><path d="M444.3 325.3L434.3 319L433.5 363Z" fill="#022d4e" stroke="#022d4e"></path><path d="M349 296L358 235.7L306.8 272.7Z" fill="#297ea6" stroke="#297ea6"></path><path d="M261 277.7L248.5 290.7L281.5 289.3Z" fill="#022d4e" stroke="#022d4e"></path><path d="M237.5 317.3L205.5 289.7L202.8 353.7Z" fill="#16547a" stroke="#16547a"></path><path d="M403.3 521.3L426 527L420.8 498.3Z" fill="#124c71" stroke="#124c71"></path><path d="M420.8 498.3L472.8 442.7L405.5 416.3Z" fill="#297ea6" stroke="#297ea6"></path><path d="M376.5 545.7L426 527L403.3 521.3Z" fill="#1a5c83" stroke="#1a5c83"></path><path d="M458.3 546.3L426 527L434.5 609.7Z" fill="#053457" stroke="#053457"></path><path d="M444.3 325.3L435.8 316L434.3 319Z" fill="#16547a" stroke="#16547a"></path><path d="M434.3 319L407.5 264.7L370.3 319.7Z" fill="#25759d" stroke="#25759d"></path><path d="M235.8 543.7L248.3 545.3L229.3 520Z" fill="#216d94" stroke="#216d94"></path><path d="M229.3 520L248.3 545.3L276.8 532.7Z" fill="#124c71" stroke="#124c71"></path><path d="M455 508.7L472.8 442.7L420.8 498.3Z" fill="#25759d" stroke="#25759d"></path><path d="M458.3 394L490 387.3L456 359.3Z" fill="#022d4e" stroke="#022d4e"></path><path d="M456 359.3L444.3 325.3L433.5 363Z" fill="#124c71" stroke="#124c71"></path><path d="M165.5 428.3L196.3 434.7L191.3 417Z" fill="#1a5c83" stroke="#1a5c83"></path><path d="M165.5 428.3L177 451L196.3 434.7Z" fill="#16547a" stroke="#16547a"></path><path d="M266.5 263.3L261 277.7L281.5 289.3Z" fill="#124c71" stroke="#124c71"></path><path d="M202.5 540L235.8 543.7L229.3 520Z" fill="#216d94" stroke="#216d94"></path><path d="M267.8 569L274.5 545.3L265 547.7Z" fill="#093c5f" stroke="#093c5f"></path><path d="M202.5 540L229.3 520L212.3 503.7Z" fill="#1a5c83" stroke="#1a5c83"></path><path d="M267.8 569L265 547.7L265 571.3Z" fill="#1a5c83" stroke="#1a5c83"></path><path d="M274.5 575L325 574.3L274.5 545.3Z" fill="#1e648c" stroke="#1e648c"></path><path d="M360.3 556L394.5 605.3L376.5 545.7Z" fill="#0e4468" stroke="#0e4468"></path><path d="M426 527L455 508.7L420.8 498.3Z" fill="#022d4e" stroke="#022d4e"></path><path d="M134.8 372L191.3 417L205 386Z" fill="#022d4e" stroke="#022d4e"></path><path d="M265 571.3L265 547.7L248.3 545.3Z" fill="#0e4468" stroke="#0e4468"></path><path d="M306.8 272.7L266.5 263.3L281.5 289.3Z" fill="#022d4e" stroke="#022d4e"></path><path d="M261 277.7L251 262L248.5 290.7Z" fill="#1a5c83" stroke="#1a5c83"></path><path d="M248.5 290.7L205.5 289.7L237.5 317.3Z" fill="#053457" stroke="#053457"></path><path d="M258.5 575L265 571.3L248.3 545.3Z" fill="#022d4e" stroke="#022d4e"></path><path d="M267.8 569L274.5 575L274.5 545.3Z" fill="#124c71" stroke="#124c71"></path><path d="M265 571.3L274.5 575L267.8 569Z" fill="#0e4468" stroke="#0e4468"></path><path d="M516.3 387L490 387.3L532.3 436.7Z" fill="#124c71" stroke="#124c71"></path><path d="M472.8 442.7L490 387.3L458.3 394Z" fill="#297ea6" stroke="#297ea6"></path><path d="M456 359.3L478.8 326.7L444.3 325.3Z" fill="#124c71" stroke="#124c71"></path><path d="M303.3 608.7L336.8 586L325 574.3Z" fill="#053457" stroke="#053457"></path><path d="M325 574.3L336.8 586L355.8 552Z" fill="#216d94" stroke="#216d94"></path><path d="M426 527L458.3 546.3L455 508.7Z" fill="#1a5c83" stroke="#1a5c83"></path><path d="M407.5 264.7L434.3 319L435.8 316Z" fill="#124c71" stroke="#124c71"></path><path d="M407.5 264.7L385 257.3L370.3 319.7Z" fill="#25759d" stroke="#25759d"></path><path d="M241.5 221L242.8 236L273.5 192Z" fill="#093c5f" stroke="#093c5f"></path><path d="M242.8 236L251 262L266.5 263.3Z" fill="#1a5c83" stroke="#1a5c83"></path><path d="M266.5 263.3L251 262L261 277.7Z" fill="#25759d" stroke="#25759d"></path><path d="M265 571.3L258.5 575L274.5 575Z" fill="#216d94" stroke="#216d94"></path><path d="M274.5 575L303.3 608.7L325 574.3Z" fill="#0e4468" stroke="#0e4468"></path><path d="M240 578L258.5 575L248.3 545.3Z" fill="#25759d" stroke="#25759d"></path><path d="M455 508.7L490.5 466L472.8 442.7Z" fill="#25759d" stroke="#25759d"></path><path d="M476 310.7L435.8 316L444.3 325.3Z" fill="#0e4468" stroke="#0e4468"></path><path d="M417.5 247.3L407.5 264.7L440.3 253Z" fill="#1a5c83" stroke="#1a5c83"></path><path d="M169.8 520L202.5 540L212.3 503.7Z" fill="#1a5c83" stroke="#1a5c83"></path><path d="M235.8 543.7L240 578L248.3 545.3Z" fill="#216d94" stroke="#216d94"></path><path d="M169.8 520L212.3 503.7L156.3 507.7Z" fill="#16547a" stroke="#16547a"></path><path d="M210.3 266.7L205.5 289.7L248.5 290.7Z" fill="#16547a" stroke="#16547a"></path><path d="M193.5 355.3L134.8 372L205 386Z" fill="#1e648c" stroke="#1e648c"></path><path d="M202.5 540L218.8 559.7L235.8 543.7Z" fill="#1a5c83" stroke="#1a5c83"></path><path d="M490 387.3L478.8 326.7L456 359.3Z" fill="#25759d" stroke="#25759d"></path><path d="M218.8 559.7L240 578L235.8 543.7Z" fill="#297ea6" stroke="#297ea6"></path><path d="M278.8 642.3L303.3 608.7L274.5 575Z" fill="#022d4e" stroke="#022d4e"></path><path d="M385.3 235L358 235.7L385 257.3Z" fill="#1a5c83" stroke="#1a5c83"></path><path d="M385 257.3L358 235.7L349 296Z" fill="#093c5f" stroke="#093c5f"></path><path d="M497.8 327L476 310.7L478.8 326.7Z" fill="#093c5f" stroke="#093c5f"></path><path d="M478.8 326.7L476 310.7L444.3 325.3Z" fill="#297ea6" stroke="#297ea6"></path><path d="M394.5 605.3L426 527L376.5 545.7Z" fill="#16547a" stroke="#16547a"></path><path d="M455 508.7L481.5 527L490.5 466Z" fill="#25759d" stroke="#25759d"></path><path d="M205.5 289.7L156.3 337.3L193.5 355.3Z" fill="#25759d" stroke="#25759d"></path><path d="M156.3 507.7L177 451L105.8 491.3Z" fill="#124c71" stroke="#124c71"></path><path d="M156.3 507.7L212.3 503.7L177 451Z" fill="#25759d" stroke="#25759d"></path><path d="M202.5 540L196.8 596.3L218.8 559.7Z" fill="#093c5f" stroke="#093c5f"></path><path d="M218.8 559.7L196.8 596.3L240 578Z" fill="#022d4e" stroke="#022d4e"></path><path d="M458.3 546.3L463.8 542.7L455 508.7Z" fill="#1e648c" stroke="#1e648c"></path><path d="M251 262L210.3 266.7L248.5 290.7Z" fill="#0e4468" stroke="#0e4468"></path><path d="M205.5 289.7L179 275.7L156.3 337.3Z" fill="#16547a" stroke="#16547a"></path><path d="M242.8 236L210.3 266.7L251 262Z" fill="#124c71" stroke="#124c71"></path><path d="M417.5 247.3L396.8 241.3L407.5 264.7Z" fill="#053457" stroke="#053457"></path><path d="M407.5 264.7L396.8 241.3L385 257.3Z" fill="#216d94" stroke="#216d94"></path><path d="M396.8 241.3L385.3 235L385 257.3Z" fill="#0e4468" stroke="#0e4468"></path><path d="M463.8 542.7L481.5 527L455 508.7Z" fill="#124c71" stroke="#124c71"></path><path d="M115.5 437L177 451L165.5 428.3Z" fill="#297ea6" stroke="#297ea6"></path><path d="M156.3 507.7L170.3 530.3L169.8 520Z" fill="#297ea6" stroke="#297ea6"></path><path d="M169.8 520L170.3 530.3L202.5 540Z" fill="#216d94" stroke="#216d94"></path><path d="M156.3 337.3L141.5 358L193.5 355.3Z" fill="#053457" stroke="#053457"></path><path d="M440.3 253L407.5 264.7L435.8 316Z" fill="#053457" stroke="#053457"></path><path d="M396.8 241.3L402.8 228.3L385.3 235Z" fill="#053457" stroke="#053457"></path><path d="M278.8 642.3L274.5 575L258.5 575Z" fill="#093c5f" stroke="#093c5f"></path><path d="M336.8 586L394.5 605.3L360.3 556Z" fill="#124c71" stroke="#124c71"></path><path d="M532.3 436.7L490 387.3L472.8 442.7Z" fill="#053457" stroke="#053457"></path><path d="M490 387.3L497.8 327L478.8 326.7Z" fill="#053457" stroke="#053457"></path><path d="M532.3 436.7L472.8 442.7L490.5 466Z" fill="#297ea6" stroke="#297ea6"></path><path d="M210.3 266.7L194 273.3L205.5 289.7Z" fill="#216d94" stroke="#216d94"></path><path d="M156.3 337.3L140.8 350.3L141.5 358Z" fill="#022d4e" stroke="#022d4e"></path><path d="M516.3 387L497.8 327L490 387.3Z" fill="#0e4468" stroke="#0e4468"></path><path d="M476 310.7L465.3 280.3L435.8 316Z" fill="#1a5c83" stroke="#1a5c83"></path><path d="M141.5 358L134.8 372L193.5 355.3Z" fill="#053457" stroke="#053457"></path><path d="M493.5 257L465.3 280.3L476 310.7Z" fill="#25759d" stroke="#25759d"></path><path d="M114.5 298.7L140.8 350.3L156.3 337.3Z" fill="#0e4468" stroke="#0e4468"></path><path d="M141.5 358L140.8 350.3L134.8 372Z" fill="#1e648c" stroke="#1e648c"></path><path d="M134.8 372L130.8 387L191.3 417Z" fill="#0e4468" stroke="#0e4468"></path><path d="M266.5 263.3L306.8 272.7L280.5 192.3Z" fill="#216d94" stroke="#216d94"></path><path d="M242.8 236L266.5 263.3L280.5 192.3Z" fill="#093c5f" stroke="#093c5f"></path><path d="M189.3 259L179 275.7L194 273.3Z" fill="#16547a" stroke="#16547a"></path><path d="M465.3 280.3L440.3 253L435.8 316Z" fill="#093c5f" stroke="#093c5f"></path><path d="M417.5 247.3L402.8 228.3L396.8 241.3Z" fill="#16547a" stroke="#16547a"></path><path d="M481.5 527L517.3 474.7L490.5 466Z" fill="#25759d" stroke="#25759d"></path><path d="M363.8 624L394.5 605.3L336.8 586Z" fill="#022d4e" stroke="#022d4e"></path><path d="M471 578L489 534.7L463.8 542.7Z" fill="#25759d" stroke="#25759d"></path><path d="M463.8 542.7L489 534.7L481.5 527Z" fill="#25759d" stroke="#25759d"></path><path d="M471 578L463.8 542.7L458.3 546.3Z" fill="#053457" stroke="#053457"></path><path d="M481.5 527L524.8 528.7L517.3 474.7Z" fill="#1a5c83" stroke="#1a5c83"></path><path d="M189.3 259L194 273.3L210.3 266.7Z" fill="#053457" stroke="#053457"></path><path d="M194 273.3L179 275.7L205.5 289.7Z" fill="#16547a" stroke="#16547a"></path><path d="M427.8 202L402.8 228.3L417.5 247.3Z" fill="#216d94" stroke="#216d94"></path><path d="M393.5 201.3L339.3 201.7L358 235.7Z" fill="#297ea6" stroke="#297ea6"></path><path d="M120 384.3L122 391.3L130.8 387Z" fill="#297ea6" stroke="#297ea6"></path><path d="M130.8 387L122 391.3L165.5 428.3Z" fill="#16547a" stroke="#16547a"></path><path d="M120 384.3L130.8 387L134.8 372Z" fill="#1a5c83" stroke="#1a5c83"></path><path d="M535.8 346.3L504 316.7L497.8 327Z" fill="#053457" stroke="#053457"></path><path d="M497.8 327L504 316.7L476 310.7Z" fill="#053457" stroke="#053457"></path><path d="M465.3 280.3L493.5 257L440.3 253Z" fill="#124c71" stroke="#124c71"></path><path d="M79.8 337.7L120 384.3L134.8 372Z" fill="#216d94" stroke="#216d94"></path><path d="M79.8 337.7L134.8 372L140.8 350.3Z" fill="#093c5f" stroke="#093c5f"></path><path d="M222.8 214.7L189.3 259L210.3 266.7Z" fill="#022d4e" stroke="#022d4e"></path><path d="M517.3 474.7L532.3 436.7L490.5 466Z" fill="#25759d" stroke="#25759d"></path><path d="M516.3 387L535.8 346.3L497.8 327Z" fill="#053457" stroke="#053457"></path><path d="M80.5 426.3L115.5 437L122 391.3Z" fill="#1a5c83" stroke="#1a5c83"></path><path d="M122 391.3L115.5 437L165.5 428.3Z" fill="#25759d" stroke="#25759d"></path><path d="M532.3 436.7L534.5 394.3L516.3 387Z" fill="#1a5c83" stroke="#1a5c83"></path><path d="M303.3 608.7L363.8 624L336.8 586Z" fill="#16547a" stroke="#16547a"></path><path d="M322 197L306.8 272.7L358 235.7Z" fill="#124c71" stroke="#124c71"></path><path d="M242.8 236L222.8 214.7L210.3 266.7Z" fill="#25759d" stroke="#25759d"></path><path d="M393.5 201.3L358 235.7L385.3 235Z" fill="#022d4e" stroke="#022d4e"></path><path d="M434.5 609.7L471 578L458.3 546.3Z" fill="#216d94" stroke="#216d94"></path><path d="M489 534.7L524.8 528.7L481.5 527Z" fill="#0e4468" stroke="#0e4468"></path><path d="M434.5 609.7L426 527L394.5 605.3Z" fill="#16547a" stroke="#16547a"></path><path d="M339.3 201.7L322 197L358 235.7Z" fill="#093c5f" stroke="#093c5f"></path><path d="M145.8 280.7L179 275.7L148.5 242.7Z" fill="#022d4e" stroke="#022d4e"></path><path d="M145.8 280.7L146.5 288L179 275.7Z" fill="#124c71" stroke="#124c71"></path><path d="M179 275.7L146.5 288L156.3 337.3Z" fill="#297ea6" stroke="#297ea6"></path><path d="M141.5 544.3L170.3 530.3L156.3 507.7Z" fill="#093c5f" stroke="#093c5f"></path><path d="M139 564L196.8 596.3L170.3 530.3Z" fill="#1a5c83" stroke="#1a5c83"></path><path d="M170.3 530.3L196.8 596.3L202.5 540Z" fill="#0e4468" stroke="#0e4468"></path><path d="M240 578L278.8 642.3L258.5 575Z" fill="#0e4468" stroke="#0e4468"></path><path d="M358.3 660.3L377.5 633.3L363.8 624Z" fill="#297ea6" stroke="#297ea6"></path><path d="M377.5 633.3L434.5 609.7L394.5 605.3Z" fill="#297ea6" stroke="#297ea6"></path><path d="M550.3 386L535.8 346.3L516.3 387Z" fill="#0e4468" stroke="#0e4468"></path><path d="M393.5 201.3L402.8 228.3L427.8 202Z" fill="#093c5f" stroke="#093c5f"></path><path d="M330 658.7L363.8 624L303.3 608.7Z" fill="#1a5c83" stroke="#1a5c83"></path><path d="M363.8 624L377.5 633.3L394.5 605.3Z" fill="#1a5c83" stroke="#1a5c83"></path><path d="M129.3 534.7L141.5 544.3L156.3 507.7Z" fill="#297ea6" stroke="#297ea6"></path><path d="M148.5 242.7L179 275.7L189.3 259Z" fill="#053457" stroke="#053457"></path><path d="M146.5 288L114.5 298.7L156.3 337.3Z" fill="#1a5c83" stroke="#1a5c83"></path><path d="M394.5 198.3L393.5 201.3L427.8 202Z" fill="#297ea6" stroke="#297ea6"></path><path d="M402.8 228.3L393.5 201.3L385.3 235Z" fill="#0e4468" stroke="#0e4468"></path><path d="M339.3 201.7L370.3 169.7L322 197Z" fill="#053457" stroke="#053457"></path><path d="M493.5 257L476 310.7L524.8 288.7Z" fill="#25759d" stroke="#25759d"></path><path d="M273.5 192L222.8 214.7L241.5 221Z" fill="#053457" stroke="#053457"></path><path d="M241.5 221L222.8 214.7L242.8 236Z" fill="#1e648c" stroke="#1e648c"></path><path d="M554.3 407L551 396L534.5 394.3Z" fill="#25759d" stroke="#25759d"></path><path d="M534.5 394.3L550.3 386L516.3 387Z" fill="#093c5f" stroke="#093c5f"></path><path d="M554.3 407L534.5 394.3L532.3 436.7Z" fill="#093c5f" stroke="#093c5f"></path><path d="M551 396L550.3 386L534.5 394.3Z" fill="#297ea6" stroke="#297ea6"></path><path d="M552.8 334.3L539.8 341L562.5 363.7Z" fill="#053457" stroke="#053457"></path><path d="M535.8 346.3L539.8 341L504 316.7Z" fill="#093c5f" stroke="#093c5f"></path><path d="M110.5 514.7L129.3 534.7L156.3 507.7Z" fill="#297ea6" stroke="#297ea6"></path><path d="M141.5 544.3L139 564L170.3 530.3Z" fill="#216d94" stroke="#216d94"></path><path d="M294.8 171L280.5 192.3L322 197Z" fill="#124c71" stroke="#124c71"></path><path d="M322 197L280.5 192.3L306.8 272.7Z" fill="#022d4e" stroke="#022d4e"></path><path d="M510.5 553L524.8 528.7L489 534.7Z" fill="#0e4468" stroke="#0e4468"></path><path d="M517.3 474.7L555 447.7L532.3 436.7Z" fill="#0e4468" stroke="#0e4468"></path><path d="M427.8 202L417.5 247.3L440.3 253Z" fill="#1a5c83" stroke="#1a5c83"></path><path d="M393.5 201.3L371 181L339.3 201.7Z" fill="#093c5f" stroke="#093c5f"></path><path d="M555 447.7L554.3 407L532.3 436.7Z" fill="#093c5f" stroke="#093c5f"></path><path d="M577.3 367L562.5 363.7L550.3 386Z" fill="#0e4468" stroke="#0e4468"></path><path d="M481 615.3L510.5 553L471 578Z" fill="#124c71" stroke="#124c71"></path><path d="M471 578L510.5 553L489 534.7Z" fill="#1e648c" stroke="#1e648c"></path><path d="M237.5 655.3L278.8 642.3L240 578Z" fill="#0e4468" stroke="#0e4468"></path><path d="M280.5 192.3L273.5 192L242.8 236Z" fill="#297ea6" stroke="#297ea6"></path><path d="M73.8 473.7L105.8 491.3L115.5 437Z" fill="#216d94" stroke="#216d94"></path><path d="M115.5 437L105.8 491.3L177 451Z" fill="#1e648c" stroke="#1e648c"></path><path d="M565.3 485.3L555 447.7L517.3 474.7Z" fill="#16547a" stroke="#16547a"></path><path d="M524.8 288.7L476 310.7L504 316.7Z" fill="#124c71" stroke="#124c71"></path><path d="M510.5 553L528.5 533.7L524.8 528.7Z" fill="#053457" stroke="#053457"></path><path d="M524.8 528.7L565.3 485.3L517.3 474.7Z" fill="#25759d" stroke="#25759d"></path><path d="M105.8 491.3L110.5 514.7L156.3 507.7Z" fill="#124c71" stroke="#124c71"></path><path d="M80 585.7L139 564L129.3 534.7Z" fill="#124c71" stroke="#124c71"></path><path d="M129.3 534.7L139 564L141.5 544.3Z" fill="#053457" stroke="#053457"></path><path d="M196.8 596.3L237.5 655.3L240 578Z" fill="#124c71" stroke="#124c71"></path><path d="M547.5 333.3L524.8 288.7L504 316.7Z" fill="#216d94" stroke="#216d94"></path><path d="M552.8 334.3L547.5 333.3L539.8 341Z" fill="#022d4e" stroke="#022d4e"></path><path d="M539.8 341L547.5 333.3L504 316.7Z" fill="#053457" stroke="#053457"></path><path d="M539.8 341L535.8 346.3L562.5 363.7Z" fill="#16547a" stroke="#16547a"></path><path d="M442.3 199.7L427.8 202L440.3 253Z" fill="#0e4468" stroke="#0e4468"></path><path d="M455.3 629.3L454.5 617.3L434.5 609.7Z" fill="#053457" stroke="#053457"></path><path d="M434.5 609.7L454.5 617.3L471 578Z" fill="#022d4e" stroke="#022d4e"></path><path d="M510.5 553L536.8 551.3L528.5 533.7Z" fill="#1a5c83" stroke="#1a5c83"></path><path d="M278.8 642.3L314.3 655.7L303.3 608.7Z" fill="#216d94" stroke="#216d94"></path><path d="M441.3 659.7L455.3 629.3L434.5 609.7Z" fill="#093c5f" stroke="#093c5f"></path><path d="M375.5 181L393.5 201.3L394.5 198.3Z" fill="#0e4468" stroke="#0e4468"></path><path d="M375.5 181L371 181L393.5 201.3Z" fill="#16547a" stroke="#16547a"></path><path d="M280.5 192.3L278.3 166.3L273.5 192Z" fill="#093c5f" stroke="#093c5f"></path><path d="M426.5 183.7L375.5 181L394.5 198.3Z" fill="#0e4468" stroke="#0e4468"></path><path d="M107.3 272L114.5 298.7L145.8 280.7Z" fill="#022d4e" stroke="#022d4e"></path><path d="M145.8 280.7L114.5 298.7L146.5 288Z" fill="#216d94" stroke="#216d94"></path><path d="M72.8 413.7L80.5 426.3L122 391.3Z" fill="#25759d" stroke="#25759d"></path><path d="M314.3 655.7L330 658.7L303.3 608.7Z" fill="#053457" stroke="#053457"></path><path d="M562.5 363.7L535.8 346.3L550.3 386Z" fill="#093c5f" stroke="#093c5f"></path><path d="M547.5 333.3L581 306.3L524.8 288.7Z" fill="#053457" stroke="#053457"></path><path d="M577.3 367L551 396L554.3 407Z" fill="#022d4e" stroke="#022d4e"></path><path d="M577.3 367L550.3 386L551 396Z" fill="#1e648c" stroke="#1e648c"></path><path d="M72.8 413.7L122 391.3L120 384.3Z" fill="#1e648c" stroke="#1e648c"></path><path d="M105.8 491.3L64.8 498L110.5 514.7Z" fill="#093c5f" stroke="#093c5f"></path><path d="M330 658.7L358.3 660.3L363.8 624Z" fill="#216d94" stroke="#216d94"></path><path d="M478.8 204.3L442.3 199.7L440.3 253Z" fill="#216d94" stroke="#216d94"></path><path d="M395.5 131L370.3 169.7L375.5 181Z" fill="#1a5c83" stroke="#1a5c83"></path><path d="M478.8 204.3L440.3 253L493.5 257Z" fill="#25759d" stroke="#25759d"></path><path d="M370.3 169.7L339.3 201.7L371 181Z" fill="#216d94" stroke="#216d94"></path><path d="M332.3 138.3L294.8 171L322 197Z" fill="#124c71" stroke="#124c71"></path><path d="M202 189.3L181 209L222.8 214.7Z" fill="#25759d" stroke="#25759d"></path><path d="M155 232.7L189.3 259L181 209Z" fill="#216d94" stroke="#216d94"></path><path d="M155 232.7L148.5 242.7L189.3 259Z" fill="#053457" stroke="#053457"></path><path d="M152.3 601.3L146 588.7L125.8 625.7Z" fill="#1a5c83" stroke="#1a5c83"></path><path d="M139 564L146 588.7L196.8 596.3Z" fill="#297ea6" stroke="#297ea6"></path><path d="M107.3 272L103 304.3L114.5 298.7Z" fill="#16547a" stroke="#16547a"></path><path d="M114.5 298.7L103 304.3L140.8 350.3Z" fill="#1a5c83" stroke="#1a5c83"></path><path d="M463.3 641L455.3 629.3L441.3 659.7Z" fill="#093c5f" stroke="#093c5f"></path><path d="M454.5 617.3L481 615.3L471 578Z" fill="#1a5c83" stroke="#1a5c83"></path><path d="M528.5 533.7L565.3 485.3L524.8 528.7Z" fill="#124c71" stroke="#124c71"></path><path d="M600.3 375.7L577.3 367L554.3 407Z" fill="#124c71" stroke="#124c71"></path><path d="M181 209L189.3 259L222.8 214.7Z" fill="#16547a" stroke="#16547a"></path><path d="M148.5 242.7L107.3 272L145.8 280.7Z" fill="#124c71" stroke="#124c71"></path><path d="M538.5 553.7L536.8 551.3L510.5 553Z" fill="#053457" stroke="#053457"></path><path d="M528.5 533.7L578 534.3L565.3 485.3Z" fill="#053457" stroke="#053457"></path><path d="M426.5 183.7L394.5 198.3L427.8 202Z" fill="#297ea6" stroke="#297ea6"></path><path d="M375.5 181L370.3 169.7L371 181Z" fill="#16547a" stroke="#16547a"></path><path d="M68.8 375L72.8 413.7L120 384.3Z" fill="#1e648c" stroke="#1e648c"></path><path d="M80.5 426.3L69.5 439.3L115.5 437Z" fill="#297ea6" stroke="#297ea6"></path><path d="M471.5 622.7L481 615.3L454.5 617.3Z" fill="#053457" stroke="#053457"></path><path d="M202 189.3L222.8 214.7L254.8 159Z" fill="#1a5c83" stroke="#1a5c83"></path><path d="M455.3 629.3L471.5 622.7L454.5 617.3Z" fill="#022d4e" stroke="#022d4e"></path><path d="M146 588.7L152.3 601.3L196.8 596.3Z" fill="#297ea6" stroke="#297ea6"></path><path d="M309.8 688L320.8 673.3L314.3 655.7Z" fill="#053457" stroke="#053457"></path><path d="M542.5 575.3L538.5 553.7L510.5 553Z" fill="#1a5c83" stroke="#1a5c83"></path><path d="M536.8 551.3L557.3 546L528.5 533.7Z" fill="#0e4468" stroke="#0e4468"></path><path d="M442.3 199.7L426.5 183.7L427.8 202Z" fill="#022d4e" stroke="#022d4e"></path><path d="M174.3 665.3L237.5 655.3L196.8 596.3Z" fill="#0e4468" stroke="#0e4468"></path><path d="M320.8 673.3L345.3 672L330 658.7Z" fill="#053457" stroke="#053457"></path><path d="M330 658.7L345.3 672L358.3 660.3Z" fill="#0e4468" stroke="#0e4468"></path><path d="M285.3 155.7L278.3 166.3L294.8 171Z" fill="#1a5c83" stroke="#1a5c83"></path><path d="M294.8 171L278.3 166.3L280.5 192.3Z" fill="#0e4468" stroke="#0e4468"></path><path d="M471.5 622.7L484.8 635.7L481 615.3Z" fill="#16547a" stroke="#16547a"></path><path d="M455.3 629.3L461.8 633L471.5 622.7Z" fill="#1e648c" stroke="#1e648c"></path><path d="M463.3 641L461.8 633L455.3 629.3Z" fill="#25759d" stroke="#25759d"></path><path d="M320.8 673.3L330 658.7L314.3 655.7Z" fill="#297ea6" stroke="#297ea6"></path><path d="M441.3 659.7L434.5 609.7L377.5 633.3Z" fill="#053457" stroke="#053457"></path><path d="M72.8 413.7L69.5 439.3L80.5 426.3Z" fill="#1e648c" stroke="#1e648c"></path><path d="M110.5 514.7L68 551.3L129.3 534.7Z" fill="#216d94" stroke="#216d94"></path><path d="M125.8 625.7L139.5 636.3L152.3 601.3Z" fill="#022d4e" stroke="#022d4e"></path><path d="M322 687L320.8 673.3L309.8 688Z" fill="#1a5c83" stroke="#1a5c83"></path><path d="M600.3 375.7L554.3 407L606 427Z" fill="#1e648c" stroke="#1e648c"></path><path d="M562.5 363.7L594.3 339.3L552.8 334.3Z" fill="#216d94" stroke="#216d94"></path><path d="M559.3 246.3L531.5 237.7L524.8 288.7Z" fill="#25759d" stroke="#25759d"></path><path d="M69.5 439.3L73.8 473.7L115.5 437Z" fill="#25759d" stroke="#25759d"></path><path d="M103 304.3L79.8 337.7L140.8 350.3Z" fill="#093c5f" stroke="#093c5f"></path><path d="M47.8 445.3L64 456L69.5 439.3Z" fill="#0e4468" stroke="#0e4468"></path><path d="M254.8 159L222.8 214.7L273.5 192Z" fill="#16547a" stroke="#16547a"></path><path d="M136.5 228.3L148.5 242.7L155 232.7Z" fill="#297ea6" stroke="#297ea6"></path><path d="M79.8 337.7L68.8 375L120 384.3Z" fill="#1a5c83" stroke="#1a5c83"></path><path d="M136.5 228.3L107.3 272L148.5 242.7Z" fill="#0e4468" stroke="#0e4468"></path><path d="M103 304.3L57.3 294.3L79.8 337.7Z" fill="#0e4468" stroke="#0e4468"></path><path d="M136.5 228.3L155 232.7L146.8 210.7Z" fill="#093c5f" stroke="#093c5f"></path><path d="M486.8 206L478.8 204.3L493.5 257Z" fill="#0e4468" stroke="#0e4468"></path><path d="M442.3 199.7L448.3 158.3L426.5 183.7Z" fill="#297ea6" stroke="#297ea6"></path><path d="M486.8 206L493.5 257L504 209.3Z" fill="#124c71" stroke="#124c71"></path><path d="M441.3 659.7L377.5 633.3L387.5 702Z" fill="#216d94" stroke="#216d94"></path><path d="M461.8 633L484.8 635.7L471.5 622.7Z" fill="#1a5c83" stroke="#1a5c83"></path><path d="M542.5 575.3L548.8 556L538.5 553.7Z" fill="#25759d" stroke="#25759d"></path><path d="M542.5 575.3L510.5 553L511.5 626Z" fill="#25759d" stroke="#25759d"></path><path d="M538.5 553.7L548.8 556L536.8 551.3Z" fill="#216d94" stroke="#216d94"></path><path d="M47.8 445.3L69.5 439.3L72.8 413.7Z" fill="#16547a" stroke="#16547a"></path><path d="M69.5 439.3L64 456L73.8 473.7Z" fill="#297ea6" stroke="#297ea6"></path><path d="M285.8 150.3L285.3 155.7L294.8 171Z" fill="#022d4e" stroke="#022d4e"></path><path d="M278.3 166.3L254.8 159L273.5 192Z" fill="#25759d" stroke="#25759d"></path><path d="M531.5 237.7L493.5 257L524.8 288.7Z" fill="#1e648c" stroke="#1e648c"></path><path d="M478.8 204.3L448.3 158.3L442.3 199.7Z" fill="#124c71" stroke="#124c71"></path><path d="M548.8 556L557.3 546L536.8 551.3Z" fill="#297ea6" stroke="#297ea6"></path><path d="M146.8 210.7L155 232.7L181 209Z" fill="#0e4468" stroke="#0e4468"></path><path d="M285.3 155.7L254.8 159L278.3 166.3Z" fill="#216d94" stroke="#216d94"></path><path d="M136.5 228.3L101.8 267.3L107.3 272Z" fill="#022d4e" stroke="#022d4e"></path><path d="M107.3 272L101.8 267.3L103 304.3Z" fill="#0e4468" stroke="#0e4468"></path><path d="M332.3 138.3L285.8 150.3L294.8 171Z" fill="#053457" stroke="#053457"></path><path d="M285.3 155.7L285.8 150.3L254.8 159Z" fill="#16547a" stroke="#16547a"></path><path d="M511.5 626L510.5 553L481 615.3Z" fill="#053457" stroke="#053457"></path><path d="M548.8 556L554.5 563.3L557.3 546Z" fill="#053457" stroke="#053457"></path><path d="M387.5 702L377.5 633.3L358.3 660.3Z" fill="#0e4468" stroke="#0e4468"></path><path d="M463.3 641L484.8 635.7L461.8 633Z" fill="#1e648c" stroke="#1e648c"></path><path d="M320.8 673.3L322 687L345.3 672Z" fill="#297ea6" stroke="#297ea6"></path><path d="M345.3 672L355.8 695L358.3 660.3Z" fill="#124c71" stroke="#124c71"></path><path d="M309.8 688L314.3 655.7L298.3 695.3Z" fill="#022d4e" stroke="#022d4e"></path><path d="M475.8 650.7L484.8 635.7L463.3 641Z" fill="#1e648c" stroke="#1e648c"></path><path d="M298.3 695.3L314.3 655.7L278.8 642.3Z" fill="#124c71" stroke="#124c71"></path><path d="M148.3 196.3L146.8 210.7L181 209Z" fill="#25759d" stroke="#25759d"></path><path d="M136.5 228.3L123 219.3L101.8 267.3Z" fill="#093c5f" stroke="#093c5f"></path><path d="M182.3 178.7L181 209L202 189.3Z" fill="#0e4468" stroke="#0e4468"></path><path d="M558.3 580.3L554.5 563.3L542.5 575.3Z" fill="#124c71" stroke="#124c71"></path><path d="M542.5 575.3L554.5 563.3L548.8 556Z" fill="#124c71" stroke="#124c71"></path><path d="M42 482.7L64.8 498L73.8 473.7Z" fill="#1a5c83" stroke="#1a5c83"></path><path d="M73.8 473.7L64.8 498L105.8 491.3Z" fill="#0e4468" stroke="#0e4468"></path><path d="M581 306.3L547.5 333.3L552.8 334.3Z" fill="#053457" stroke="#053457"></path><path d="M531.5 237.7L504 209.3L493.5 257Z" fill="#1a5c83" stroke="#1a5c83"></path><path d="M493 180.3L448.3 158.3L478.8 204.3Z" fill="#1a5c83" stroke="#1a5c83"></path><path d="M578 534.3L592.3 487.7L565.3 485.3Z" fill="#0e4468" stroke="#0e4468"></path><path d="M565.3 485.3L592.3 487.7L555 447.7Z" fill="#297ea6" stroke="#297ea6"></path><path d="M578 534.3L528.5 533.7L557.3 546Z" fill="#216d94" stroke="#216d94"></path><path d="M229.8 702.7L251.5 683.7L237.5 655.3Z" fill="#216d94" stroke="#216d94"></path><path d="M237.5 655.3L251.5 683.7L278.8 642.3Z" fill="#16547a" stroke="#16547a"></path><path d="M193 148L182.3 178.7L202 189.3Z" fill="#1a5c83" stroke="#1a5c83"></path><path d="M193 148L202 189.3L201.3 143Z" fill="#0e4468" stroke="#0e4468"></path><path d="M606 427L554.3 407L555 447.7Z" fill="#022d4e" stroke="#022d4e"></path><path d="M594.3 339.3L581 306.3L552.8 334.3Z" fill="#1e648c" stroke="#1e648c"></path><path d="M441.3 659.7L475.8 650.7L463.3 641Z" fill="#25759d" stroke="#25759d"></path><path d="M484.8 635.7L511.5 626L481 615.3Z" fill="#1a5c83" stroke="#1a5c83"></path><path d="M389.5 125.3L332.3 138.3L370.3 169.7Z" fill="#124c71" stroke="#124c71"></path><path d="M370.3 169.7L332.3 138.3L322 197Z" fill="#25759d" stroke="#25759d"></path><path d="M395.5 131L375.5 181L426.5 183.7Z" fill="#297ea6" stroke="#297ea6"></path><path d="M0 413.3L47.8 445.3L72.8 413.7Z" fill="#216d94" stroke="#216d94"></path><path d="M64 456L42 482.7L73.8 473.7Z" fill="#16547a" stroke="#16547a"></path><path d="M32.3 463L47.8 445.3L2.8 448.7Z" fill="#124c71" stroke="#124c71"></path><path d="M594.3 339.3L562.5 363.7L577.3 367Z" fill="#1e648c" stroke="#1e648c"></path><path d="M572 566L578 534.3L557.3 546Z" fill="#1e648c" stroke="#1e648c"></path><path d="M581 306.3L567.3 278L524.8 288.7Z" fill="#053457" stroke="#053457"></path><path d="M251.5 683.7L298.3 695.3L278.8 642.3Z" fill="#053457" stroke="#053457"></path><path d="M309.8 688L331.8 717L322 687Z" fill="#0e4468" stroke="#0e4468"></path><path d="M341.3 699.7L355.8 695L345.3 672Z" fill="#124c71" stroke="#124c71"></path><path d="M341.3 699.7L345.3 672L322 687Z" fill="#1a5c83" stroke="#1a5c83"></path><path d="M441.3 659.7L493 690.3L475.8 650.7Z" fill="#093c5f" stroke="#093c5f"></path><path d="M600.3 375.7L594.3 339.3L577.3 367Z" fill="#297ea6" stroke="#297ea6"></path><path d="M518.5 646.7L511.5 626L484.8 635.7Z" fill="#022d4e" stroke="#022d4e"></path><path d="M554.5 563.3L572 566L557.3 546Z" fill="#25759d" stroke="#25759d"></path><path d="M592.3 487.7L606 427L555 447.7Z" fill="#124c71" stroke="#124c71"></path><path d="M133.8 194.3L123 219.3L146.8 210.7Z" fill="#16547a" stroke="#16547a"></path><path d="M146.8 210.7L123 219.3L136.5 228.3Z" fill="#053457" stroke="#053457"></path><path d="M182.3 178.7L148.3 196.3L181 209Z" fill="#053457" stroke="#053457"></path><path d="M531.5 237.7L513.8 206.3L504 209.3Z" fill="#093c5f" stroke="#093c5f"></path><path d="M504 209.3L493 180.3L486.8 206Z" fill="#053457" stroke="#053457"></path><path d="M536.8 175.7L513.8 206.3L531.5 237.7Z" fill="#16547a" stroke="#16547a"></path><path d="M331.8 717L341.3 699.7L322 687Z" fill="#1a5c83" stroke="#1a5c83"></path><path d="M553.3 589.7L558.3 580.3L542.5 575.3Z" fill="#022d4e" stroke="#022d4e"></path><path d="M255.8 113.3L255.8 139.7L285.8 150.3Z" fill="#1e648c" stroke="#1e648c"></path><path d="M285.8 150.3L255.8 139.7L254.8 159Z" fill="#124c71" stroke="#124c71"></path><path d="M132.8 193L133.8 194.3L148.3 196.3Z" fill="#124c71" stroke="#124c71"></path><path d="M493 180.3L478.8 204.3L486.8 206Z" fill="#216d94" stroke="#216d94"></path><path d="M511.5 626L553.3 589.7L542.5 575.3Z" fill="#053457" stroke="#053457"></path><path d="M125.8 625.7L146 588.7L80 585.7Z" fill="#1a5c83" stroke="#1a5c83"></path><path d="M152.3 601.3L174.3 665.3L196.8 596.3Z" fill="#216d94" stroke="#216d94"></path><path d="M251.5 683.7L289.3 703L298.3 695.3Z" fill="#053457" stroke="#053457"></path><path d="M298.3 695.3L331.8 717L309.8 688Z" fill="#25759d" stroke="#25759d"></path><path d="M260 704L289.3 703L251.5 683.7Z" fill="#053457" stroke="#053457"></path><path d="M619.8 607L572 566L558.3 580.3Z" fill="#25759d" stroke="#25759d"></path><path d="M558.3 580.3L572 566L554.5 563.3Z" fill="#093c5f" stroke="#093c5f"></path><path d="M578 534.3L595 528.3L592.3 487.7Z" fill="#297ea6" stroke="#297ea6"></path><path d="M80 585.7L146 588.7L139 564Z" fill="#297ea6" stroke="#297ea6"></path><path d="M567.3 278L559.3 246.3L524.8 288.7Z" fill="#1a5c83" stroke="#1a5c83"></path><path d="M581.5 231.7L559.3 246.3L601.8 257.7Z" fill="#1a5c83" stroke="#1a5c83"></path><path d="M559.3 246.3L567.3 278L601.8 257.7Z" fill="#297ea6" stroke="#297ea6"></path><path d="M513.8 206.3L493 180.3L504 209.3Z" fill="#1e648c" stroke="#1e648c"></path><path d="M515.8 175.7L493 180.3L513.8 206.3Z" fill="#022d4e" stroke="#022d4e"></path><path d="M39 519L68 551.3L64.8 498Z" fill="#124c71" stroke="#124c71"></path><path d="M64.8 498L68 551.3L110.5 514.7Z" fill="#053457" stroke="#053457"></path><path d="M32.3 463L42 482.7L64 456Z" fill="#25759d" stroke="#25759d"></path><path d="M115.8 659.3L174.3 665.3L139.5 636.3Z" fill="#124c71" stroke="#124c71"></path><path d="M139.5 636.3L174.3 665.3L152.3 601.3Z" fill="#297ea6" stroke="#297ea6"></path><path d="M342.3 719.3L353 706.3L341.3 699.7Z" fill="#1e648c" stroke="#1e648c"></path><path d="M341.3 699.7L353 706.3L355.8 695Z" fill="#1e648c" stroke="#1e648c"></path><path d="M355.8 695L387.5 702L358.3 660.3Z" fill="#297ea6" stroke="#297ea6"></path><path d="M353 706.3L356.8 706.3L355.8 695Z" fill="#093c5f" stroke="#093c5f"></path><path d="M363.5 707.7L387.5 702L355.8 695Z" fill="#022d4e" stroke="#022d4e"></path><path d="M572 566L595 528.3L578 534.3Z" fill="#093c5f" stroke="#093c5f"></path><path d="M592.3 487.7L621.3 448.7L606 427Z" fill="#25759d" stroke="#25759d"></path><path d="M132.8 193L148.3 196.3L142.3 135.7Z" fill="#25759d" stroke="#25759d"></path><path d="M148.3 196.3L133.8 194.3L146.8 210.7Z" fill="#297ea6" stroke="#297ea6"></path><path d="M59.3 262L57.3 294.3L101.8 267.3Z" fill="#124c71" stroke="#124c71"></path><path d="M365.5 717L363.5 707.7L356.8 706.3Z" fill="#297ea6" stroke="#297ea6"></path><path d="M356.8 706.3L363.5 707.7L355.8 695Z" fill="#25759d" stroke="#25759d"></path><path d="M365.5 717L356.8 706.3L353 706.3Z" fill="#022d4e" stroke="#022d4e"></path><path d="M389.5 125.3L395.5 131L407.3 88.3Z" fill="#216d94" stroke="#216d94"></path><path d="M448.3 158.3L395.5 131L426.5 183.7Z" fill="#1e648c" stroke="#1e648c"></path><path d="M324.3 94L255.8 113.3L285.8 150.3Z" fill="#053457" stroke="#053457"></path><path d="M101.8 267.3L57.3 294.3L103 304.3Z" fill="#16547a" stroke="#16547a"></path><path d="M79.8 337.7L38 310.7L68.8 375Z" fill="#093c5f" stroke="#093c5f"></path><path d="M47.8 445.3L32.3 463L64 456Z" fill="#25759d" stroke="#25759d"></path><path d="M112.3 207.7L101.8 267.3L123 219.3Z" fill="#16547a" stroke="#16547a"></path><path d="M229.8 702.7L260 704L251.5 683.7Z" fill="#16547a" stroke="#16547a"></path><path d="M292.5 722.3L331.8 717L298.3 695.3Z" fill="#093c5f" stroke="#093c5f"></path><path d="M142.3 135.7L148.3 196.3L182.3 178.7Z" fill="#0e4468" stroke="#0e4468"></path><path d="M133.8 194.3L112.3 207.7L123 219.3Z" fill="#25759d" stroke="#25759d"></path><path d="M2.8 448.7L47.8 445.3L0 443Z" fill="#25759d" stroke="#25759d"></path><path d="M51.5 549.7L63.3 559L68 551.3Z" fill="#053457" stroke="#053457"></path><path d="M393 730.3L430.3 694.3L387.5 702Z" fill="#053457" stroke="#053457"></path><path d="M387.5 702L430.3 694.3L441.3 659.7Z" fill="#297ea6" stroke="#297ea6"></path><path d="M475.8 650.7L518.5 646.7L484.8 635.7Z" fill="#216d94" stroke="#216d94"></path><path d="M260 704L279.8 710.7L289.3 703Z" fill="#297ea6" stroke="#297ea6"></path><path d="M63.3 559L80 585.7L68 551.3Z" fill="#297ea6" stroke="#297ea6"></path><path d="M68 551.3L80 585.7L129.3 534.7Z" fill="#093c5f" stroke="#093c5f"></path><path d="M39 519L64.8 498L42 482.7Z" fill="#297ea6" stroke="#297ea6"></path><path d="M623 493.7L621.3 448.7L592.3 487.7Z" fill="#053457" stroke="#053457"></path><path d="M606 427L622.8 401L600.3 375.7Z" fill="#25759d" stroke="#25759d"></path><path d="M600.3 375.7L671.8 342L594.3 339.3Z" fill="#053457" stroke="#053457"></path><path d="M132.8 193L112.3 207.7L133.8 194.3Z" fill="#16547a" stroke="#16547a"></path><path d="M621.3 448.7L622.8 401L606 427Z" fill="#124c71" stroke="#124c71"></path><path d="M601.8 257.7L567.3 278L581 306.3Z" fill="#1a5c83" stroke="#1a5c83"></path><path d="M457.3 119.7L395.5 131L448.3 158.3Z" fill="#16547a" stroke="#16547a"></path><path d="M395.5 131L389.5 125.3L370.3 169.7Z" fill="#0e4468" stroke="#0e4468"></path><path d="M125.8 625.7L122.5 637L139.5 636.3Z" fill="#1a5c83" stroke="#1a5c83"></path><path d="M66.3 632.7L122.5 637L125.8 625.7Z" fill="#0e4468" stroke="#0e4468"></path><path d="M201.3 143L202 189.3L254.8 159Z" fill="#053457" stroke="#053457"></path><path d="M83.3 140.7L59.8 236.7L112.3 207.7Z" fill="#124c71" stroke="#124c71"></path><path d="M255.8 139.7L201.3 143L254.8 159Z" fill="#124c71" stroke="#124c71"></path><path d="M255.8 113.3L201.3 143L255.8 139.7Z" fill="#022d4e" stroke="#022d4e"></path><path d="M113.5 678.7L183 681.3L174.3 665.3Z" fill="#297ea6" stroke="#297ea6"></path><path d="M174.3 665.3L183 681.3L237.5 655.3Z" fill="#216d94" stroke="#216d94"></path><path d="M271.3 751.7L292.5 722.3L279.8 710.7Z" fill="#16547a" stroke="#16547a"></path><path d="M292.5 722.3L298.3 695.3L289.3 703Z" fill="#1a5c83" stroke="#1a5c83"></path><path d="M363.5 707.7L365.5 717L387.5 702Z" fill="#297ea6" stroke="#297ea6"></path><path d="M511.5 626L553.5 630.7L553.3 589.7Z" fill="#0e4468" stroke="#0e4468"></path><path d="M553.3 589.7L619.8 607L558.3 580.3Z" fill="#297ea6" stroke="#297ea6"></path><path d="M517.3 678L518.5 646.7L475.8 650.7Z" fill="#053457" stroke="#053457"></path><path d="M207 698.3L229.8 702.7L237.5 655.3Z" fill="#297ea6" stroke="#297ea6"></path><path d="M342.3 719.3L365.5 717L353 706.3Z" fill="#053457" stroke="#053457"></path><path d="M361 750L342.3 719.3L319 756.7Z" fill="#022d4e" stroke="#022d4e"></path><path d="M331.8 717L342.3 719.3L341.3 699.7Z" fill="#297ea6" stroke="#297ea6"></path><path d="M13.3 510L39 519L42 482.7Z" fill="#053457" stroke="#053457"></path><path d="M43.8 608.7L66.3 632.7L80 585.7Z" fill="#216d94" stroke="#216d94"></path><path d="M39 519L51.5 549.7L68 551.3Z" fill="#124c71" stroke="#124c71"></path><path d="M183 681.3L207 698.3L237.5 655.3Z" fill="#297ea6" stroke="#297ea6"></path><path d="M501.8 165L471.8 148.7L493 180.3Z" fill="#216d94" stroke="#216d94"></path><path d="M493 180.3L471.8 148.7L448.3 158.3Z" fill="#297ea6" stroke="#297ea6"></path><path d="M47 272L38 310.7L57.3 294.3Z" fill="#297ea6" stroke="#297ea6"></path><path d="M57.3 294.3L38 310.7L79.8 337.7Z" fill="#022d4e" stroke="#022d4e"></path><path d="M536.8 175.7L515.8 175.7L513.8 206.3Z" fill="#0e4468" stroke="#0e4468"></path><path d="M271.3 751.7L279.8 710.7L260 704Z" fill="#053457" stroke="#053457"></path><path d="M279.8 710.7L292.5 722.3L289.3 703Z" fill="#25759d" stroke="#25759d"></path><path d="M234 721.7L260 704L229.8 702.7Z" fill="#216d94" stroke="#216d94"></path><path d="M59.8 236.7L59.3 262L101.8 267.3Z" fill="#216d94" stroke="#216d94"></path><path d="M515.8 175.7L501.8 165L493 180.3Z" fill="#0e4468" stroke="#0e4468"></path><path d="M595 528.3L623 493.7L592.3 487.7Z" fill="#053457" stroke="#053457"></path><path d="M621.3 448.7L659.8 428.3L622.8 401Z" fill="#25759d" stroke="#25759d"></path><path d="M663.5 500.3L668.8 541.3L672.5 515Z" fill="#297ea6" stroke="#297ea6"></path><path d="M623 493.7L668.8 541.3L663.5 500.3Z" fill="#1a5c83" stroke="#1a5c83"></path><path d="M324.3 94L285.8 150.3L332.3 138.3Z" fill="#1e648c" stroke="#1e648c"></path><path d="M566.8 637.7L553.5 630.7L554.3 657.7Z" fill="#216d94" stroke="#216d94"></path><path d="M518.5 646.7L553.5 630.7L511.5 626Z" fill="#053457" stroke="#053457"></path><path d="M48 255.7L47 272L59.3 262Z" fill="#1a5c83" stroke="#1a5c83"></path><path d="M59.3 262L47 272L57.3 294.3Z" fill="#053457" stroke="#053457"></path><path d="M559.3 246.3L581.5 231.7L531.5 237.7Z" fill="#093c5f" stroke="#093c5f"></path><path d="M601.8 257.7L581 306.3L675 288.3Z" fill="#093c5f" stroke="#093c5f"></path><path d="M499 119L482 140.7L501.8 165Z" fill="#1e648c" stroke="#1e648c"></path><path d="M501.8 165L482 140.7L471.8 148.7Z" fill="#25759d" stroke="#25759d"></path><path d="M471.8 148.7L464 128.7L448.3 158.3Z" fill="#053457" stroke="#053457"></path><path d="M546.8 145.7L501.8 165L515.8 175.7Z" fill="#216d94" stroke="#216d94"></path><path d="M201.5 711.7L229.8 702.7L207 698.3Z" fill="#022d4e" stroke="#022d4e"></path><path d="M201.5 711.7L234 721.7L229.8 702.7Z" fill="#25759d" stroke="#25759d"></path><path d="M201.5 711.7L207 698.3L183 681.3Z" fill="#022d4e" stroke="#022d4e"></path><path d="M675 321.7L581 306.3L594.3 339.3Z" fill="#1e648c" stroke="#1e648c"></path><path d="M154.8 758L201.5 711.7L183 681.3Z" fill="#093c5f" stroke="#093c5f"></path><path d="M482 140.7L464 128.7L471.8 148.7Z" fill="#1e648c" stroke="#1e648c"></path><path d="M375.5 95.7L324.3 94L332.3 138.3Z" fill="#0e4468" stroke="#0e4468"></path><path d="M59.8 236.7L48 255.7L59.3 262Z" fill="#124c71" stroke="#124c71"></path><path d="M0 338.7L0 342.3L38 310.7Z" fill="#25759d" stroke="#25759d"></path><path d="M66.3 632.7L115.8 659.3L122.5 637Z" fill="#1a5c83" stroke="#1a5c83"></path><path d="M122.5 637L115.8 659.3L139.5 636.3Z" fill="#093c5f" stroke="#093c5f"></path><path d="M113.5 678.7L115.8 659.3L87 669.3Z" fill="#053457" stroke="#053457"></path><path d="M112.3 207.7L59.8 236.7L101.8 267.3Z" fill="#124c71" stroke="#124c71"></path><path d="M83.3 140.7L112.3 207.7L132.8 193Z" fill="#124c71" stroke="#124c71"></path><path d="M581.5 231.7L536.8 175.7L531.5 237.7Z" fill="#16547a" stroke="#16547a"></path><path d="M499 119L457.3 119.7L464 128.7Z" fill="#297ea6" stroke="#297ea6"></path><path d="M365.5 717L393 730.3L387.5 702Z" fill="#297ea6" stroke="#297ea6"></path><path d="M430.3 694.3L493 690.3L441.3 659.7Z" fill="#25759d" stroke="#25759d"></path><path d="M361 750L393 730.3L365.5 717Z" fill="#124c71" stroke="#124c71"></path><path d="M361 750L365.5 717L342.3 719.3Z" fill="#0e4468" stroke="#0e4468"></path><path d="M342.3 719.3L331.8 717L319 756.7Z" fill="#1e648c" stroke="#1e648c"></path><path d="M486.8 733L493 690.3L430.3 694.3Z" fill="#022d4e" stroke="#022d4e"></path><path d="M375.5 95.7L332.3 138.3L389.5 125.3Z" fill="#16547a" stroke="#16547a"></path><path d="M0 413.3L72.8 413.7L0 387Z" fill="#216d94" stroke="#216d94"></path><path d="M1.5 466L13.3 510L42 482.7Z" fill="#124c71" stroke="#124c71"></path><path d="M39 519L0 548L51.5 549.7Z" fill="#297ea6" stroke="#297ea6"></path><path d="M72.8 413.7L68.8 375L0 387Z" fill="#25759d" stroke="#25759d"></path><path d="M493 690.3L517.3 678L475.8 650.7Z" fill="#053457" stroke="#053457"></path><path d="M407.3 88.3L375.5 95.7L389.5 125.3Z" fill="#124c71" stroke="#124c71"></path><path d="M0 387L68.8 375L0 381.7Z" fill="#1a5c83" stroke="#1a5c83"></path><path d="M436 94.3L457.3 119.7L499 119Z" fill="#0e4468" stroke="#0e4468"></path><path d="M464 128.7L457.3 119.7L448.3 158.3Z" fill="#124c71" stroke="#124c71"></path><path d="M1.5 466L42 482.7L32.3 463Z" fill="#1a5c83" stroke="#1a5c83"></path><path d="M66.3 632.7L125.8 625.7L80 585.7Z" fill="#124c71" stroke="#124c71"></path><path d="M0 413.3L0 443L47.8 445.3Z" fill="#297ea6" stroke="#297ea6"></path><path d="M2.8 448.7L1.5 466L32.3 463Z" fill="#16547a" stroke="#16547a"></path><path d="M0 381.7L68.8 375L0 342.3Z" fill="#0e4468" stroke="#0e4468"></path><path d="M0 342.3L68.8 375L38 310.7Z" fill="#022d4e" stroke="#022d4e"></path><path d="M0 463L1.5 466L2.8 448.7Z" fill="#022d4e" stroke="#022d4e"></path><path d="M554.3 657.7L553.5 630.7L518.5 646.7Z" fill="#216d94" stroke="#216d94"></path><path d="M553.5 630.7L566.8 637.7L553.3 589.7Z" fill="#0e4468" stroke="#0e4468"></path><path d="M0 443L0 463L2.8 448.7Z" fill="#25759d" stroke="#25759d"></path><path d="M1.5 466L-12.2 486.3L13.3 510Z" fill="#1a5c83" stroke="#1a5c83"></path><path d="M279.5 77L253.5 95.7L255.8 113.3Z" fill="#053457" stroke="#053457"></path><path d="M255.8 113.3L203 104.7L201.3 143Z" fill="#16547a" stroke="#16547a"></path><path d="M201.3 143L203 104.7L193 148Z" fill="#25759d" stroke="#25759d"></path><path d="M193 148L142.3 135.7L182.3 178.7Z" fill="#25759d" stroke="#25759d"></path><path d="M544.5 678.7L554.3 657.7L518.5 646.7Z" fill="#124c71" stroke="#124c71"></path><path d="M0 338.7L38 310.7L0 324.7Z" fill="#25759d" stroke="#25759d"></path><path d="M0 324.7L38 310.7L1.3 250.3Z" fill="#25759d" stroke="#25759d"></path><path d="M253.5 95.7L203 104.7L255.8 113.3Z" fill="#25759d" stroke="#25759d"></path><path d="M665.5 448L659.8 428.3L621.3 448.7Z" fill="#053457" stroke="#053457"></path><path d="M622.8 401L675 368.7L600.3 375.7Z" fill="#1e648c" stroke="#1e648c"></path><path d="M665.5 448L621.3 448.7L623 493.7Z" fill="#216d94" stroke="#216d94"></path><path d="M203 104.7L142.3 135.7L193 148Z" fill="#053457" stroke="#053457"></path><path d="M319 756.7L331.8 717L292.5 722.3Z" fill="#16547a" stroke="#16547a"></path><path d="M393 730.3L398.5 761.3L430.3 694.3Z" fill="#16547a" stroke="#16547a"></path><path d="M80 585.7L63.3 559L43.8 608.7Z" fill="#093c5f" stroke="#093c5f"></path><path d="M115.8 659.3L113.5 678.7L174.3 665.3Z" fill="#1e648c" stroke="#1e648c"></path><path d="M43.8 608.7L63.3 559L51.5 549.7Z" fill="#1a5c83" stroke="#1a5c83"></path><path d="M1.3 250.3L38 310.7L47 272Z" fill="#1a5c83" stroke="#1a5c83"></path><path d="M1.3 250.3L47 272L48 255.7Z" fill="#1e648c" stroke="#1e648c"></path><path d="M436 94.3L407.3 88.3L395.5 131Z" fill="#297ea6" stroke="#297ea6"></path><path d="M375.5 95.7L368.8 78L324.3 94Z" fill="#053457" stroke="#053457"></path><path d="M324.3 94L279.5 77L255.8 113.3Z" fill="#0e4468" stroke="#0e4468"></path><path d="M554.3 657.7L573.8 646.3L566.8 637.7Z" fill="#053457" stroke="#053457"></path><path d="M566.8 637.7L619.8 607L553.3 589.7Z" fill="#022d4e" stroke="#022d4e"></path><path d="M407.3 88.3L371.8 80.7L375.5 95.7Z" fill="#216d94" stroke="#216d94"></path><path d="M266 787.3L271.3 751.7L234 721.7Z" fill="#25759d" stroke="#25759d"></path><path d="M234 721.7L271.3 751.7L260 704Z" fill="#297ea6" stroke="#297ea6"></path><path d="M266 787.3L234 721.7L213.8 809.3Z" fill="#093c5f" stroke="#093c5f"></path><path d="M271.3 751.7L319 756.7L292.5 722.3Z" fill="#124c71" stroke="#124c71"></path><path d="M0 548L43.8 608.7L51.5 549.7Z" fill="#022d4e" stroke="#022d4e"></path><path d="M457.3 119.7L436 94.3L395.5 131Z" fill="#093c5f" stroke="#093c5f"></path><path d="M379.3 23L368.8 78L371.8 80.7Z" fill="#022d4e" stroke="#022d4e"></path><path d="M499 119L464 128.7L482 140.7Z" fill="#0e4468" stroke="#0e4468"></path><path d="M379.3 23L371.8 80.7L407.3 88.3Z" fill="#124c71" stroke="#124c71"></path><path d="M371.8 80.7L368.8 78L375.5 95.7Z" fill="#25759d" stroke="#25759d"></path><path d="M517.3 678L544.5 678.7L518.5 646.7Z" fill="#16547a" stroke="#16547a"></path><path d="M595 692.7L599 652L573.8 646.3Z" fill="#1e648c" stroke="#1e648c"></path><path d="M544 741.7L544.5 678.7L517.3 678Z" fill="#0e4468" stroke="#0e4468"></path><path d="M544 741.7L517.3 678L493 690.3Z" fill="#25759d" stroke="#25759d"></path><path d="M675 470.3L665.5 448L623 493.7Z" fill="#1a5c83" stroke="#1a5c83"></path><path d="M278 68.7L279.5 77L324.3 94Z" fill="#216d94" stroke="#216d94"></path><path d="M253.5 95.7L203 52L203 104.7Z" fill="#0e4468" stroke="#0e4468"></path><path d="M0 463L-12.2 486.3L1.5 466Z" fill="#1a5c83" stroke="#1a5c83"></path><path d="M13.3 510L0 548L39 519Z" fill="#053457" stroke="#053457"></path><path d="M0 443L-12.2 486.3L0 463Z" fill="#053457" stroke="#053457"></path><path d="M-15.5 491.7L-12.2 486.3L0 443Z" fill="#053457" stroke="#053457"></path><path d="M-15.5 491.7L0 443L0 413.3Z" fill="#1a5c83" stroke="#1a5c83"></path><path d="M-15.5 491.7L0 413.3L-45.2 538Z" fill="#1a5c83" stroke="#1a5c83"></path><path d="M0 413.3L0 387L-38.2 304.3Z" fill="#1e648c" stroke="#1e648c"></path><path d="M0 387L0 381.7L-38.2 304.3Z" fill="#053457" stroke="#053457"></path><path d="M0 381.7L0 342.3L-38.2 304.3Z" fill="#16547a" stroke="#16547a"></path><path d="M546.8 145.7L515.8 175.7L536.8 175.7Z" fill="#022d4e" stroke="#022d4e"></path><path d="M546.8 145.7L499 119L501.8 165Z" fill="#25759d" stroke="#25759d"></path><path d="M546.8 145.7L536.8 175.7L591.3 167.7Z" fill="#25759d" stroke="#25759d"></path><path d="M66.3 632.7L87 669.3L115.8 659.3Z" fill="#0e4468" stroke="#0e4468"></path><path d="M113.5 678.7L106.8 690.7L183 681.3Z" fill="#16547a" stroke="#16547a"></path><path d="M83.3 681L87 669.3L67.5 670Z" fill="#216d94" stroke="#216d94"></path><path d="M-38.2 304.3L0 342.3L0 338.7Z" fill="#022d4e" stroke="#022d4e"></path><path d="M-12.2 486.3L-15.5 491.7L13.3 510Z" fill="#1a5c83" stroke="#1a5c83"></path><path d="M619.8 607L595 528.3L572 566Z" fill="#124c71" stroke="#124c71"></path><path d="M675 435L675 415L659.8 428.3Z" fill="#25759d" stroke="#25759d"></path><path d="M659.8 428.3L675 415L622.8 401Z" fill="#25759d" stroke="#25759d"></path><path d="M675 435L659.8 428.3L665.5 448Z" fill="#25759d" stroke="#25759d"></path><path d="M591.3 167.7L536.8 175.7L581.5 231.7Z" fill="#297ea6" stroke="#297ea6"></path><path d="M87 669.3L106.8 690.7L113.5 678.7Z" fill="#16547a" stroke="#16547a"></path><path d="M-15.5 491.7L0 548L13.3 510Z" fill="#1a5c83" stroke="#1a5c83"></path><path d="M67.5 670L87 669.3L66.3 632.7Z" fill="#053457" stroke="#053457"></path><path d="M675 470.3L675 435L665.5 448Z" fill="#25759d" stroke="#25759d"></path><path d="M599 652L566.8 637.7L573.8 646.3Z" fill="#1e648c" stroke="#1e648c"></path><path d="M599 652L619.8 607L566.8 637.7Z" fill="#022d4e" stroke="#022d4e"></path><path d="M342.8 24L278 68.7L324.3 94Z" fill="#0e4468" stroke="#0e4468"></path><path d="M279.5 77L278 68.7L253.5 95.7Z" fill="#093c5f" stroke="#093c5f"></path><path d="M675 415L675 388.3L622.8 401Z" fill="#022d4e" stroke="#022d4e"></path><path d="M617 184.7L591.3 167.7L581.5 231.7Z" fill="#093c5f" stroke="#093c5f"></path><path d="M373 768L398.5 761.3L361 750Z" fill="#1e648c" stroke="#1e648c"></path><path d="M361 750L398.5 761.3L393 730.3Z" fill="#1a5c83" stroke="#1a5c83"></path><path d="M675 388.3L675 368.7L622.8 401Z" fill="#053457" stroke="#053457"></path><path d="M675 470.7L675 470.3L623 493.7Z" fill="#25759d" stroke="#25759d"></path><path d="M663.5 500.3L675 470.7L623 493.7Z" fill="#093c5f" stroke="#093c5f"></path><path d="M319 756.7L373 768L361 750Z" fill="#053457" stroke="#053457"></path><path d="M272.5 834.3L373 768L319 756.7Z" fill="#1e648c" stroke="#1e648c"></path><path d="M675 368.7L671.8 342L600.3 375.7Z" fill="#053457" stroke="#053457"></path><path d="M479.8 765.7L486.8 733L430.3 694.3Z" fill="#1a5c83" stroke="#1a5c83"></path><path d="M67.5 670L66.3 632.7L0 662.3Z" fill="#1a5c83" stroke="#1a5c83"></path><path d="M87 669.3L83.3 681L106.8 690.7Z" fill="#1a5c83" stroke="#1a5c83"></path><path d="M0 638.7L66.3 632.7L43.8 608.7Z" fill="#297ea6" stroke="#297ea6"></path><path d="M668.8 541.3L623 493.7L595 528.3Z" fill="#053457" stroke="#053457"></path><path d="M663.5 500.3L672.5 515L675 470.7Z" fill="#053457" stroke="#053457"></path><path d="M595 692.7L554.3 657.7L544.5 678.7Z" fill="#093c5f" stroke="#093c5f"></path><path d="M595 692.7L573.8 646.3L554.3 657.7Z" fill="#1a5c83" stroke="#1a5c83"></path><path d="M619.8 607L668.8 541.3L595 528.3Z" fill="#1e648c" stroke="#1e648c"></path><path d="M67.5 716L101.3 701.3L83.3 681Z" fill="#0e4468" stroke="#0e4468"></path><path d="M83.3 681L101.3 701.3L106.8 690.7Z" fill="#216d94" stroke="#216d94"></path><path d="M131 752.3L154.8 758L183 681.3Z" fill="#022d4e" stroke="#022d4e"></path><path d="M692.3 343.3L675 321.7L671.8 342Z" fill="#1a5c83" stroke="#1a5c83"></path><path d="M671.8 342L675 321.7L594.3 339.3Z" fill="#022d4e" stroke="#022d4e"></path><path d="M6.5 216L48 255.7L59.8 236.7Z" fill="#1a5c83" stroke="#1a5c83"></path><path d="M6.5 216L1.3 250.3L48 255.7Z" fill="#1e648c" stroke="#1e648c"></path><path d="M0 324.7L-38.2 304.3L0 338.7Z" fill="#1a5c83" stroke="#1a5c83"></path><path d="M617 184.7L581.5 231.7L641.8 195.3Z" fill="#093c5f" stroke="#093c5f"></path><path d="M524.3 63L436 94.3L499 119Z" fill="#297ea6" stroke="#297ea6"></path><path d="M675 558L668.8 541.3L619.8 607Z" fill="#1a5c83" stroke="#1a5c83"></path><path d="M73.5 101.3L83.3 140.7L142.3 135.7Z" fill="#022d4e" stroke="#022d4e"></path><path d="M142.3 135.7L83.3 140.7L132.8 193Z" fill="#053457" stroke="#053457"></path><path d="M155 52.7L142.3 135.7L203 104.7Z" fill="#1a5c83" stroke="#1a5c83"></path><path d="M524.3 63L432.3 63.3L436 94.3Z" fill="#216d94" stroke="#216d94"></path><path d="M436 94.3L432.3 63.3L407.3 88.3Z" fill="#16547a" stroke="#16547a"></path><path d="M368.8 78L342.8 24L324.3 94Z" fill="#124c71" stroke="#124c71"></path><path d="M524.3 63L499 119L557.3 83.3Z" fill="#297ea6" stroke="#297ea6"></path><path d="M692.3 343.3L677.5 299.7L675 321.7Z" fill="#297ea6" stroke="#297ea6"></path><path d="M675 321.7L677.5 299.7L581 306.3Z" fill="#16547a" stroke="#16547a"></path><path d="M692.3 343.3L671.8 342L675 368.7Z" fill="#25759d" stroke="#25759d"></path><path d="M692.3 343.3L675 368.7L706.5 394Z" fill="#022d4e" stroke="#022d4e"></path><path d="M675 368.7L675 388.3L706.5 394Z" fill="#1a5c83" stroke="#1a5c83"></path><path d="M675 388.3L675 415L706.5 394Z" fill="#1a5c83" stroke="#1a5c83"></path><path d="M675 415L675 435L706.5 394Z" fill="#022d4e" stroke="#022d4e"></path><path d="M677.5 299.7L675 288.3L581 306.3Z" fill="#25759d" stroke="#25759d"></path><path d="M641.8 195.3L581.5 231.7L601.8 257.7Z" fill="#093c5f" stroke="#093c5f"></path><path d="M706.5 394L675 470.3L675 470.7Z" fill="#0e4468" stroke="#0e4468"></path><path d="M706.5 394L675 435L675 470.3Z" fill="#093c5f" stroke="#093c5f"></path><path d="M717.3 229.7L675.3 234.3L675 288.3Z" fill="#16547a" stroke="#16547a"></path><path d="M173 770.7L234 721.7L201.5 711.7Z" fill="#093c5f" stroke="#093c5f"></path><path d="M271.3 751.7L266 787.3L319 756.7Z" fill="#1a5c83" stroke="#1a5c83"></path><path d="M2.3 197.7L6.5 216L59.8 236.7Z" fill="#0e4468" stroke="#0e4468"></path><path d="M632.8 637.3L651.3 605.3L619.8 607Z" fill="#1a5c83" stroke="#1a5c83"></path><path d="M651.3 605.3L675 558L619.8 607Z" fill="#1e648c" stroke="#1e648c"></path><path d="M668.8 541.3L675 558L672.5 515Z" fill="#25759d" stroke="#25759d"></path><path d="M672.5 515L706.5 394L675 470.7Z" fill="#0e4468" stroke="#0e4468"></path><path d="M660.8 683.7L632.8 637.3L599 652Z" fill="#25759d" stroke="#25759d"></path><path d="M599 652L632.8 637.3L619.8 607Z" fill="#0e4468" stroke="#0e4468"></path><path d="M0 216.3L-38.2 304.3L1.3 250.3Z" fill="#0e4468" stroke="#0e4468"></path><path d="M1.3 250.3L-38.2 304.3L0 324.7Z" fill="#124c71" stroke="#124c71"></path><path d="M131 752.3L106.8 690.7L101.3 701.3Z" fill="#022d4e" stroke="#022d4e"></path><path d="M131 752.3L183 681.3L106.8 690.7Z" fill="#297ea6" stroke="#297ea6"></path><path d="M2.3 197.7L0 216.3L6.5 216Z" fill="#297ea6" stroke="#297ea6"></path><path d="M6.5 216L0 216.3L1.3 250.3Z" fill="#093c5f" stroke="#093c5f"></path><path d="M398.5 761.3L479.8 765.7L430.3 694.3Z" fill="#16547a" stroke="#16547a"></path><path d="M576.5 724.7L595 692.7L544.5 678.7Z" fill="#124c71" stroke="#124c71"></path><path d="M431.3 794L479.8 765.7L398.5 761.3Z" fill="#124c71" stroke="#124c71"></path><path d="M431.3 794L398.5 761.3L415 802.7Z" fill="#16547a" stroke="#16547a"></path><path d="M693.3 600L706.5 394L672.5 515Z" fill="#1e648c" stroke="#1e648c"></path><path d="M154.8 758L161 764L201.5 711.7Z" fill="#0e4468" stroke="#0e4468"></path><path d="M262.5 15.7L203 52L278 68.7Z" fill="#093c5f" stroke="#093c5f"></path><path d="M278 68.7L203 52L253.5 95.7Z" fill="#053457" stroke="#053457"></path><path d="M161 764L173 770.7L201.5 711.7Z" fill="#093c5f" stroke="#093c5f"></path><path d="M544 741.7L493 690.3L486.8 733Z" fill="#022d4e" stroke="#022d4e"></path><path d="M-13.5 625L0 625.7L0 548Z" fill="#0e4468" stroke="#0e4468"></path><path d="M0 548L0 625.7L43.8 608.7Z" fill="#297ea6" stroke="#297ea6"></path><path d="M115.8 768.7L131 752.3L89.3 758.7Z" fill="#093c5f" stroke="#093c5f"></path><path d="M158.3 780L162.3 773.3L161 764Z" fill="#093c5f" stroke="#093c5f"></path><path d="M0 628.3L0 625.7L-13.5 625Z" fill="#1a5c83" stroke="#1a5c83"></path><path d="M669.5 229.3L641.8 195.3L601.8 257.7Z" fill="#022d4e" stroke="#022d4e"></path><path d="M617 108.7L546.8 145.7L591.3 167.7Z" fill="#1e648c" stroke="#1e648c"></path><path d="M557.3 83.3L499 119L546.8 145.7Z" fill="#25759d" stroke="#25759d"></path><path d="M67.5 716L83.3 681L67.5 670Z" fill="#053457" stroke="#053457"></path><path d="M161 764L162.3 773.3L173 770.7Z" fill="#124c71" stroke="#124c71"></path><path d="M0 631L0 628.3L-13.5 625Z" fill="#053457" stroke="#053457"></path><path d="M0 625.7L0 628.3L43.8 608.7Z" fill="#093c5f" stroke="#093c5f"></path><path d="M-45.2 538L0 548L-15.5 491.7Z" fill="#25759d" stroke="#25759d"></path><path d="M0 628.3L0 631L43.8 608.7Z" fill="#16547a" stroke="#16547a"></path><path d="M-38.2 304.3L-45.2 538L0 413.3Z" fill="#124c71" stroke="#124c71"></path><path d="M3.8 174.3L2.3 197.7L59.8 236.7Z" fill="#216d94" stroke="#216d94"></path><path d="M0 216.3L0 178.3L-38.2 304.3Z" fill="#16547a" stroke="#16547a"></path><path d="M3.8 174.3L59.8 236.7L83.3 140.7Z" fill="#216d94" stroke="#216d94"></path><path d="M479.8 765.7L544 741.7L486.8 733Z" fill="#1a5c83" stroke="#1a5c83"></path><path d="M158.3 780L161 764L154.8 758Z" fill="#093c5f" stroke="#093c5f"></path><path d="M173 770.7L213.8 809.3L234 721.7Z" fill="#16547a" stroke="#16547a"></path><path d="M415 802.7L398.5 761.3L373 768Z" fill="#25759d" stroke="#25759d"></path><path d="M545.3 795.7L566.3 740L544 741.7Z" fill="#022d4e" stroke="#022d4e"></path><path d="M675.3 234.3L669.5 229.3L675 288.3Z" fill="#022d4e" stroke="#022d4e"></path><path d="M675 288.3L669.5 229.3L601.8 257.7Z" fill="#093c5f" stroke="#093c5f"></path><path d="M675 288.3L677.5 299.7L738.3 288Z" fill="#053457" stroke="#053457"></path><path d="M379.3 23L342.8 24L368.8 78Z" fill="#124c71" stroke="#124c71"></path><path d="M-13.5 625L0 638.7L0 631Z" fill="#216d94" stroke="#216d94"></path><path d="M0 631L0 638.7L43.8 608.7Z" fill="#093c5f" stroke="#093c5f"></path><path d="M0 666.7L67.5 716L67.5 670Z" fill="#216d94" stroke="#216d94"></path><path d="M131 752.3L158.3 780L154.8 758Z" fill="#216d94" stroke="#216d94"></path><path d="M675 233L675.3 234.3L717.3 229.7Z" fill="#124c71" stroke="#124c71"></path><path d="M669.5 229.3L675 225.7L641.8 195.3Z" fill="#297ea6" stroke="#297ea6"></path><path d="M675 225.7L675 233L717.3 229.7Z" fill="#022d4e" stroke="#022d4e"></path><path d="M675.3 234.3L675 233L669.5 229.3Z" fill="#124c71" stroke="#124c71"></path><path d="M651.3 605.3L675 601L675 558Z" fill="#1e648c" stroke="#1e648c"></path><path d="M675 558L693.3 600L672.5 515Z" fill="#16547a" stroke="#16547a"></path><path d="M675 668.3L675 601L651.3 605.3Z" fill="#1e648c" stroke="#1e648c"></path><path d="M693.3 600L675 601L675 668.3Z" fill="#16547a" stroke="#16547a"></path><path d="M370.8 872.7L415 802.7L373 768Z" fill="#1a5c83" stroke="#1a5c83"></path><path d="M566.3 740L571.3 732.7L544 741.7Z" fill="#093c5f" stroke="#093c5f"></path><path d="M388.5 0L379.3 23L410 0Z" fill="#124c71" stroke="#124c71"></path><path d="M432.3 63.3L379.3 23L407.3 88.3Z" fill="#0e4468" stroke="#0e4468"></path><path d="M-45.2 538L-13.5 625L0 548Z" fill="#1e648c" stroke="#1e648c"></path><path d="M0 638.7L0 662.3L66.3 632.7Z" fill="#053457" stroke="#053457"></path><path d="M544 741.7L576.5 724.7L544.5 678.7Z" fill="#022d4e" stroke="#022d4e"></path><path d="M675 668.3L651.3 605.3L632.8 637.3Z" fill="#124c71" stroke="#124c71"></path><path d="M262.5 15.7L272 22.3L264.8 2.3Z" fill="#053457" stroke="#053457"></path><path d="M342.8 24L272 22.3L278 68.7Z" fill="#297ea6" stroke="#297ea6"></path><path d="M671.5 183L675 225.7L699.3 193.3Z" fill="#25759d" stroke="#25759d"></path><path d="M675 233L675 225.7L669.5 229.3Z" fill="#124c71" stroke="#124c71"></path><path d="M115.8 768.7L158.3 780L131 752.3Z" fill="#124c71" stroke="#124c71"></path><path d="M162.3 773.3L158.3 780L173 770.7Z" fill="#216d94" stroke="#216d94"></path><path d="M266 787.3L272.5 834.3L319 756.7Z" fill="#216d94" stroke="#216d94"></path><path d="M544 741.7L479.8 765.7L538.3 793.7Z" fill="#022d4e" stroke="#022d4e"></path><path d="M544 741.7L571.3 732.7L576.5 724.7Z" fill="#297ea6" stroke="#297ea6"></path><path d="M576.5 724.7L607.5 728.3L595 692.7Z" fill="#297ea6" stroke="#297ea6"></path><path d="M155.5 46.3L155 52.7L203 52Z" fill="#25759d" stroke="#25759d"></path><path d="M203 52L155 52.7L203 104.7Z" fill="#1a5c83" stroke="#1a5c83"></path><path d="M36.3 111.3L3.8 174.3L83.3 140.7Z" fill="#0e4468" stroke="#0e4468"></path><path d="M2.3 197.7L0 178.3L0 216.3Z" fill="#216d94" stroke="#216d94"></path><path d="M3.8 174.3L0 178.3L2.3 197.7Z" fill="#16547a" stroke="#16547a"></path><path d="M95.8 71L73.5 101.3L142.3 135.7Z" fill="#124c71" stroke="#124c71"></path><path d="M461.5 797L479.8 765.7L431.3 794Z" fill="#16547a" stroke="#16547a"></path><path d="M571.3 732.7L575.5 733L576.5 724.7Z" fill="#1e648c" stroke="#1e648c"></path><path d="M566.3 740L575.5 733L571.3 732.7Z" fill="#297ea6" stroke="#297ea6"></path><path d="M423.5 858L461.5 797L431.3 794Z" fill="#0e4468" stroke="#0e4468"></path><path d="M295 0L272 22.3L342.8 24Z" fill="#093c5f" stroke="#093c5f"></path><path d="M272 22.3L262.5 15.7L278 68.7Z" fill="#16547a" stroke="#16547a"></path><path d="M591.3 167.7L617 184.7L617 108.7Z" fill="#1e648c" stroke="#1e648c"></path><path d="M557.3 83.3L546.8 145.7L591.3 80.7Z" fill="#124c71" stroke="#124c71"></path><path d="M675 168L617 184.7L641.8 195.3Z" fill="#25759d" stroke="#25759d"></path><path d="M0 124.7L0 172L3.8 174.3Z" fill="#16547a" stroke="#16547a"></path><path d="M3.8 174.3L0 172L0 178.3Z" fill="#053457" stroke="#053457"></path><path d="M0 178.3L0 172L-38.2 304.3Z" fill="#022d4e" stroke="#022d4e"></path><path d="M180.8 0L155.5 46.3L203 52Z" fill="#022d4e" stroke="#022d4e"></path><path d="M155 52.7L144.5 51.3L142.3 135.7Z" fill="#093c5f" stroke="#093c5f"></path><path d="M0 666.7L0 662.3L-35.2 684Z" fill="#124c71" stroke="#124c71"></path><path d="M-13.5 625L0 662.3L0 638.7Z" fill="#1e648c" stroke="#1e648c"></path><path d="M155.5 46.3L144.5 51.3L155 52.7Z" fill="#022d4e" stroke="#022d4e"></path><path d="M201.3 812.7L213.8 809.3L173 770.7Z" fill="#022d4e" stroke="#022d4e"></path><path d="M89.3 758.7L101.3 701.3L67.5 716Z" fill="#124c71" stroke="#124c71"></path><path d="M89.3 758.7L131 752.3L101.3 701.3Z" fill="#124c71" stroke="#124c71"></path><path d="M196.5 815.3L201.3 812.7L173 770.7Z" fill="#022d4e" stroke="#022d4e"></path><path d="M-35.2 684L0 662.3L-13.5 625Z" fill="#1a5c83" stroke="#1a5c83"></path><path d="M0 662.3L0 666.7L67.5 670Z" fill="#022d4e" stroke="#022d4e"></path><path d="M660.8 683.7L599 652L595 692.7Z" fill="#093c5f" stroke="#093c5f"></path><path d="M675 601L693.3 600L675 558Z" fill="#0e4468" stroke="#0e4468"></path><path d="M144.5 51.3L95.8 71L142.3 135.7Z" fill="#022d4e" stroke="#022d4e"></path><path d="M73.5 101.3L36.3 111.3L83.3 140.7Z" fill="#216d94" stroke="#216d94"></path><path d="M77.8 73.7L56.3 0L52.3 68Z" fill="#0e4468" stroke="#0e4468"></path><path d="M196.5 815.3L173 770.7L158.3 780Z" fill="#124c71" stroke="#124c71"></path><path d="M237.8 838.3L272.5 834.3L266 787.3Z" fill="#022d4e" stroke="#022d4e"></path><path d="M40.8 744.3L89.3 758.7L67.5 716Z" fill="#053457" stroke="#053457"></path><path d="M128.5 854.7L196.5 815.3L158.3 780Z" fill="#0e4468" stroke="#0e4468"></path><path d="M558.5 59.7L544.5 62.7L557.3 83.3Z" fill="#124c71" stroke="#124c71"></path><path d="M557.3 83.3L544.5 62.7L524.3 63Z" fill="#16547a" stroke="#16547a"></path><path d="M359.8 0L342.8 24L379.3 23Z" fill="#022d4e" stroke="#022d4e"></path><path d="M470.5 -10.7L432.3 63.3L508.3 0Z" fill="#1a5c83" stroke="#1a5c83"></path><path d="M359.8 0L349.3 0L342.8 24Z" fill="#1e648c" stroke="#1e648c"></path><path d="M544.5 62.7L530 53L524.3 63Z" fill="#297ea6" stroke="#297ea6"></path><path d="M349.3 0L295 0L342.8 24Z" fill="#0e4468" stroke="#0e4468"></path><path d="M262.5 15.7L220.5 0L203 52Z" fill="#0e4468" stroke="#0e4468"></path><path d="M295 0L292.5 0L272 22.3Z" fill="#022d4e" stroke="#022d4e"></path><path d="M675 172.3L671.5 183L699.3 193.3Z" fill="#297ea6" stroke="#297ea6"></path><path d="M675 225.7L671.5 183L641.8 195.3Z" fill="#022d4e" stroke="#022d4e"></path><path d="M388.5 0L359.8 0L379.3 23Z" fill="#022d4e" stroke="#022d4e"></path><path d="M292.5 0L264.8 2.3L272 22.3Z" fill="#25759d" stroke="#25759d"></path><path d="M128.5 854.7L158.3 780L115.8 768.7Z" fill="#053457" stroke="#053457"></path><path d="M201.3 812.7L237.8 838.3L213.8 809.3Z" fill="#124c71" stroke="#124c71"></path><path d="M52.3 68L36.3 111.3L73.5 101.3Z" fill="#16547a" stroke="#16547a"></path><path d="M601.8 770.3L607.5 728.3L575.5 733Z" fill="#297ea6" stroke="#297ea6"></path><path d="M575.5 733L607.5 728.3L576.5 724.7Z" fill="#124c71" stroke="#124c71"></path><path d="M601.8 770.3L575.5 733L566.3 740Z" fill="#093c5f" stroke="#093c5f"></path><path d="M237.8 838.3L266 787.3L213.8 809.3Z" fill="#25759d" stroke="#25759d"></path><path d="M487.3 827L500.8 801.3L461.5 797Z" fill="#093c5f" stroke="#093c5f"></path><path d="M410 0L379.3 23L432.3 63.3Z" fill="#093c5f" stroke="#093c5f"></path><path d="M150.3 0L95.8 71L144.5 51.3Z" fill="#216d94" stroke="#216d94"></path><path d="M95.8 71L77.8 73.7L73.5 101.3Z" fill="#022d4e" stroke="#022d4e"></path><path d="M150.3 0L144.5 51.3L155.5 46.3Z" fill="#124c71" stroke="#124c71"></path><path d="M487.3 827L461.5 797L469 856Z" fill="#216d94" stroke="#216d94"></path><path d="M461.5 797L500.8 801.3L479.8 765.7Z" fill="#16547a" stroke="#16547a"></path><path d="M675 139.7L617 108.7L617 184.7Z" fill="#297ea6" stroke="#297ea6"></path><path d="M544.5 62.7L564.8 40.3L530 53Z" fill="#216d94" stroke="#216d94"></path><path d="M470.5 -10.7L410 0L432.3 63.3Z" fill="#022d4e" stroke="#022d4e"></path><path d="M591.3 80.7L558.5 59.7L557.3 83.3Z" fill="#1a5c83" stroke="#1a5c83"></path><path d="M508.3 0L432.3 63.3L524.3 63Z" fill="#053457" stroke="#053457"></path><path d="M671.5 183L675 168L641.8 195.3Z" fill="#297ea6" stroke="#297ea6"></path><path d="M738.3 288L677.5 299.7L692.3 343.3Z" fill="#216d94" stroke="#216d94"></path><path d="M617 108.7L591.3 80.7L546.8 145.7Z" fill="#1e648c" stroke="#1e648c"></path><path d="M607.5 728.3L660.8 683.7L595 692.7Z" fill="#297ea6" stroke="#297ea6"></path><path d="M388.5 0L373.8 -9.7L359.8 0Z" fill="#216d94" stroke="#216d94"></path><path d="M359.8 0L373.8 -9.7L349.3 0Z" fill="#093c5f" stroke="#093c5f"></path><path d="M349.3 0L373.8 -9.7L295 0Z" fill="#124c71" stroke="#124c71"></path><path d="M181 -39.7L264.8 2.3L292.5 0Z" fill="#1a5c83" stroke="#1a5c83"></path><path d="M184.5 -18.3L220.5 0L181 -39.7Z" fill="#124c71" stroke="#124c71"></path><path d="M410 0L373.8 -9.7L388.5 0Z" fill="#25759d" stroke="#25759d"></path><path d="M675 172.3L675 168L671.5 183Z" fill="#1e648c" stroke="#1e648c"></path><path d="M589 47.3L558.5 59.7L591.3 80.7Z" fill="#16547a" stroke="#16547a"></path><path d="M693.5 153.3L675 168L675 172.3Z" fill="#124c71" stroke="#124c71"></path><path d="M220.5 0L264.8 2.3L181 -39.7Z" fill="#297ea6" stroke="#297ea6"></path><path d="M264.8 2.3L220.5 0L262.5 15.7Z" fill="#053457" stroke="#053457"></path><path d="M196.5 815.3L237.8 838.3L201.3 812.7Z" fill="#053457" stroke="#053457"></path><path d="M256 863.3L237.8 838.3L244.3 871Z" fill="#124c71" stroke="#124c71"></path><path d="M660.8 683.7L675 668.3L632.8 637.3Z" fill="#053457" stroke="#053457"></path><path d="M693.3 600L738.3 288L706.5 394Z" fill="#124c71" stroke="#124c71"></path><path d="M706.5 394L738.3 288L692.3 343.3Z" fill="#1e648c" stroke="#1e648c"></path><path d="M500.8 801.3L538.3 793.7L479.8 765.7Z" fill="#1a5c83" stroke="#1a5c83"></path><path d="M675 722.7L675 672.7L660.8 683.7Z" fill="#25759d" stroke="#25759d"></path><path d="M675 722.7L660.8 683.7L607.5 728.3Z" fill="#0e4468" stroke="#0e4468"></path><path d="M660.8 683.7L675 672.7L675 668.3Z" fill="#1a5c83" stroke="#1a5c83"></path><path d="M675 668.3L675 672.7L693.3 600Z" fill="#25759d" stroke="#25759d"></path><path d="M0 666.7L40.8 744.3L67.5 716Z" fill="#053457" stroke="#053457"></path><path d="M89.3 758.7L86.8 784.7L115.8 768.7Z" fill="#022d4e" stroke="#022d4e"></path><path d="M738.3 288L717.3 229.7L675 288.3Z" fill="#022d4e" stroke="#022d4e"></path><path d="M717.3 229.7L699.3 193.3L675 225.7Z" fill="#297ea6" stroke="#297ea6"></path><path d="M36.3 111.3L0 124.7L3.8 174.3Z" fill="#16547a" stroke="#16547a"></path><path d="M0 172L0 124.7L-38.2 304.3Z" fill="#297ea6" stroke="#297ea6"></path><path d="M8.5 104.7L0 124.7L36.3 111.3Z" fill="#25759d" stroke="#25759d"></path><path d="M68.3 791.7L86.8 784.7L89.3 758.7Z" fill="#1a5c83" stroke="#1a5c83"></path><path d="M555.5 845.7L545.3 795.7L538.3 793.7Z" fill="#1e648c" stroke="#1e648c"></path><path d="M538.3 793.7L545.3 795.7L544 741.7Z" fill="#093c5f" stroke="#093c5f"></path><path d="M555.5 845.7L538.3 793.7L500.8 801.3Z" fill="#216d94" stroke="#216d94"></path><path d="M184.5 -18.3L180.8 0L220.5 0Z" fill="#25759d" stroke="#25759d"></path><path d="M220.5 0L180.8 0L203 52Z" fill="#216d94" stroke="#216d94"></path><path d="M77.8 73.7L52.3 68L73.5 101.3Z" fill="#1e648c" stroke="#1e648c"></path><path d="M423.5 858L431.3 794L415 802.7Z" fill="#0e4468" stroke="#0e4468"></path><path d="M423.5 858L415 802.7L370.8 872.7Z" fill="#1e648c" stroke="#1e648c"></path><path d="M56.3 0L77.8 73.7L95.8 71Z" fill="#053457" stroke="#053457"></path><path d="M52.3 68L8.5 104.7L36.3 111.3Z" fill="#297ea6" stroke="#297ea6"></path><path d="M184.5 -18.3L168 0L180.8 0Z" fill="#1e648c" stroke="#1e648c"></path><path d="M180.8 0L168 0L155.5 46.3Z" fill="#022d4e" stroke="#022d4e"></path><path d="M589 47.3L564.8 40.3L558.5 59.7Z" fill="#25759d" stroke="#25759d"></path><path d="M558.5 59.7L564.8 40.3L544.5 62.7Z" fill="#25759d" stroke="#25759d"></path><path d="M410 0L470.5 -10.7L373.8 -9.7Z" fill="#093c5f" stroke="#093c5f"></path><path d="M589 47.3L591.3 80.7L637.3 29Z" fill="#16547a" stroke="#16547a"></path><path d="M675 139.7L617 184.7L675 168Z" fill="#1e648c" stroke="#1e648c"></path><path d="M675 139L675 139.7L693.5 153.3Z" fill="#297ea6" stroke="#297ea6"></path><path d="M693.5 153.3L675 139.7L675 168Z" fill="#16547a" stroke="#16547a"></path><path d="M693.5 153.3L675 172.3L699.3 193.3Z" fill="#1e648c" stroke="#1e648c"></path><path d="M675 139.7L675 139L617 108.7Z" fill="#022d4e" stroke="#022d4e"></path><path d="M564.8 40.3L532.5 20L530 53Z" fill="#216d94" stroke="#216d94"></path><path d="M-45.2 538L-35.2 684L-13.5 625Z" fill="#022d4e" stroke="#022d4e"></path><path d="M0 666.7L0 744.3L40.8 744.3Z" fill="#216d94" stroke="#216d94"></path><path d="M40.8 744.3L68.3 791.7L89.3 758.7Z" fill="#25759d" stroke="#25759d"></path><path d="M584.3 825.3L601.8 770.3L545.3 795.7Z" fill="#1e648c" stroke="#1e648c"></path><path d="M545.3 795.7L601.8 770.3L566.3 740Z" fill="#093c5f" stroke="#093c5f"></path><path d="M564.8 40.3L531.8 15.7L532.5 20Z" fill="#0e4468" stroke="#0e4468"></path><path d="M508.3 0L524.3 63L530 53Z" fill="#216d94" stroke="#216d94"></path><path d="M508.3 0L530 53L532.5 20Z" fill="#16547a" stroke="#16547a"></path><path d="M184.5 -18.3L150.3 0L168 0Z" fill="#1e648c" stroke="#1e648c"></path><path d="M168 0L150.3 0L155.5 46.3Z" fill="#093c5f" stroke="#093c5f"></path><path d="M244.3 871L237.8 838.3L223.8 888.7Z" fill="#1a5c83" stroke="#1a5c83"></path><path d="M237.8 838.3L256 863.3L272.5 834.3Z" fill="#124c71" stroke="#124c71"></path><path d="M370.8 872.7L373 768L272.5 834.3Z" fill="#053457" stroke="#053457"></path><path d="M717.3 229.7L693.5 153.3L699.3 193.3Z" fill="#0e4468" stroke="#0e4468"></path><path d="M637.3 29L591.3 80.7L617 108.7Z" fill="#053457" stroke="#053457"></path><path d="M675 55.3L740.3 0L675 0Z" fill="#25759d" stroke="#25759d"></path><path d="M587 0L521.8 0L531.8 15.7Z" fill="#16547a" stroke="#16547a"></path><path d="M675 87.7L617 108.7L675 139Z" fill="#1e648c" stroke="#1e648c"></path><path d="M0 802.7L68.3 791.7L40.8 744.3Z" fill="#022d4e" stroke="#022d4e"></path><path d="M86.8 784.7L128.5 854.7L115.8 768.7Z" fill="#0e4468" stroke="#0e4468"></path><path d="M509.5 0L532.5 20L531.8 15.7Z" fill="#1e648c" stroke="#1e648c"></path><path d="M509.5 0L508.3 0L532.5 20Z" fill="#25759d" stroke="#25759d"></path><path d="M521.8 0L509.5 0L531.8 15.7Z" fill="#16547a" stroke="#16547a"></path><path d="M508.3 0L578.5 -56.7L470.5 -10.7Z" fill="#216d94" stroke="#216d94"></path><path d="M181 -39.7L292.5 0L295 0Z" fill="#1e648c" stroke="#1e648c"></path><path d="M181 -39.7L295 0L373.8 -9.7Z" fill="#216d94" stroke="#216d94"></path><path d="M318 900L370.8 872.7L272.5 834.3Z" fill="#053457" stroke="#053457"></path><path d="M587 0L531.8 15.7L564.8 40.3Z" fill="#124c71" stroke="#124c71"></path><path d="M509.5 0L578.5 -56.7L508.3 0Z" fill="#093c5f" stroke="#093c5f"></path><path d="M223.8 888.7L237.8 838.3L196.5 815.3Z" fill="#1e648c" stroke="#1e648c"></path><path d="M292 900L318 900L272.5 834.3Z" fill="#022d4e" stroke="#022d4e"></path><path d="M-35.2 684L0 744.3L0 666.7Z" fill="#25759d" stroke="#25759d"></path><path d="M438.3 893.7L469 856L423.5 858Z" fill="#053457" stroke="#053457"></path><path d="M423.5 858L469 856L461.5 797Z" fill="#297ea6" stroke="#297ea6"></path><path d="M584.3 826.3L584.3 825.3L555.5 845.7Z" fill="#1e648c" stroke="#1e648c"></path><path d="M675 725.3L675 722.7L607.5 728.3Z" fill="#093c5f" stroke="#093c5f"></path><path d="M675 672.7L675 722.7L693.3 600Z" fill="#124c71" stroke="#124c71"></path><path d="M601.8 770.3L675 725.3L607.5 728.3Z" fill="#1e648c" stroke="#1e648c"></path><path d="M675 722.7L686.5 786.7L693.3 600Z" fill="#093c5f" stroke="#093c5f"></path><path d="M665.3 802.3L675 725.3L601.8 770.3Z" fill="#1a5c83" stroke="#1a5c83"></path><path d="M370.8 872.7L393.3 884.3L423.5 858Z" fill="#124c71" stroke="#124c71"></path><path d="M394.5 895.3L393.3 884.3L380 900.7Z" fill="#1e648c" stroke="#1e648c"></path><path d="M59 827.7L71.3 821L68.3 791.7Z" fill="#053457" stroke="#053457"></path><path d="M68.3 791.7L71.3 821L86.8 784.7Z" fill="#16547a" stroke="#16547a"></path><path d="M56.3 0L21.5 47.7L52.3 68Z" fill="#1e648c" stroke="#1e648c"></path><path d="M52.3 68L21.5 47.7L8.5 104.7Z" fill="#093c5f" stroke="#093c5f"></path><path d="M8.5 104.7L-22.2 16.3L0 124.7Z" fill="#124c71" stroke="#124c71"></path><path d="M56.3 0L95.8 71L150.3 0Z" fill="#093c5f" stroke="#093c5f"></path><path d="M-45.2 538L-44.2 720L-35.2 684Z" fill="#1e648c" stroke="#1e648c"></path><path d="M-35.2 684L-44.2 720L0 744.3Z" fill="#022d4e" stroke="#022d4e"></path><path d="M0 802.7L59 827.7L68.3 791.7Z" fill="#216d94" stroke="#216d94"></path><path d="M154.3 -61.7L181 -39.7L373.8 -9.7Z" fill="#1e648c" stroke="#1e648c"></path><path d="M184.5 -18.3L181 -39.7L150.3 0Z" fill="#022d4e" stroke="#022d4e"></path><path d="M71.3 821L128.5 854.7L86.8 784.7Z" fill="#1a5c83" stroke="#1a5c83"></path><path d="M675 55.3L675 87.7L740.3 0Z" fill="#1a5c83" stroke="#1a5c83"></path><path d="M693.5 153.3L675 87.7L675 139Z" fill="#297ea6" stroke="#297ea6"></path><path d="M589 47.3L587 0L564.8 40.3Z" fill="#022d4e" stroke="#022d4e"></path><path d="M176.3 900L223.8 888.7L196.5 815.3Z" fill="#16547a" stroke="#16547a"></path><path d="M292 900L272.5 834.3L256 863.3Z" fill="#1a5c83" stroke="#1a5c83"></path><path d="M292 900L256 863.3L280.3 900Z" fill="#124c71" stroke="#124c71"></path><path d="M318 900L339.5 900L370.8 872.7Z" fill="#124c71" stroke="#124c71"></path><path d="M339.5 900L340.3 900L370.8 872.7Z" fill="#1a5c83" stroke="#1a5c83"></path><path d="M380 900.7L393.3 884.3L370.8 872.7Z" fill="#297ea6" stroke="#297ea6"></path><path d="M407.8 900L438.3 893.7L423.5 858Z" fill="#022d4e" stroke="#022d4e"></path><path d="M500.8 801.3L487.3 827L555.5 845.7Z" fill="#053457" stroke="#053457"></path><path d="M584.3 825.3L545.3 795.7L555.5 845.7Z" fill="#297ea6" stroke="#297ea6"></path><path d="M280.3 900L256 863.3L251.5 900Z" fill="#297ea6" stroke="#297ea6"></path><path d="M555.5 845.7L487.3 827L532.3 900Z" fill="#1e648c" stroke="#1e648c"></path><path d="M584.3 825.3L641.5 808.3L601.8 770.3Z" fill="#1a5c83" stroke="#1a5c83"></path><path d="M251.5 900L256 863.3L244.3 871Z" fill="#216d94" stroke="#216d94"></path><path d="M492 900L487.3 827L469 856Z" fill="#297ea6" stroke="#297ea6"></path><path d="M353 917.3L380 900.7L340.3 900Z" fill="#022d4e" stroke="#022d4e"></path><path d="M340.3 900L380 900.7L370.8 872.7Z" fill="#1e648c" stroke="#1e648c"></path><path d="M407.8 900L423.5 858L393.3 884.3Z" fill="#216d94" stroke="#216d94"></path><path d="M353 917.3L340.3 900L339.5 900Z" fill="#093c5f" stroke="#093c5f"></path><path d="M353 917.3L339.5 900L318 900Z" fill="#093c5f" stroke="#093c5f"></path><path d="M275.5 915.7L318 900L292 900Z" fill="#297ea6" stroke="#297ea6"></path><path d="M241.8 900L251.5 900L244.3 871Z" fill="#1a5c83" stroke="#1a5c83"></path><path d="M280.3 900L275.5 915.7L292 900Z" fill="#1e648c" stroke="#1e648c"></path><path d="M241.8 900L244.3 871L223.8 888.7Z" fill="#0e4468" stroke="#0e4468"></path><path d="M-11.5 774.7L40.8 744.3L0 744.3Z" fill="#297ea6" stroke="#297ea6"></path><path d="M71.3 821L107.5 872L128.5 854.7Z" fill="#16547a" stroke="#16547a"></path><path d="M407.8 900L393.3 884.3L394.5 895.3Z" fill="#093c5f" stroke="#093c5f"></path><path d="M380 900.7L407.8 900L394.5 895.3Z" fill="#0e4468" stroke="#0e4468"></path><path d="M216.8 916.3L241.8 900L223.8 888.7Z" fill="#216d94" stroke="#216d94"></path><path d="M251.5 900L275.5 915.7L280.3 900Z" fill="#1e648c" stroke="#1e648c"></path><path d="M251.5 900L241.8 900L219 927.7Z" fill="#093c5f" stroke="#093c5f"></path><path d="M-37.2 761L-11.5 774.7L0 744.3Z" fill="#022d4e" stroke="#022d4e"></path><path d="M637.3 29L587 0L589 47.3Z" fill="#093c5f" stroke="#093c5f"></path><path d="M521.8 0L578.5 -56.7L509.5 0Z" fill="#1e648c" stroke="#1e648c"></path><path d="M578.5 -56.7L154.3 -61.7L373.8 -9.7Z" fill="#297ea6" stroke="#297ea6"></path><path d="M96.8 -33.3L56.3 0L150.3 0Z" fill="#1e648c" stroke="#1e648c"></path><path d="M423.5 932.7L442.5 900L407.8 900Z" fill="#1a5c83" stroke="#1a5c83"></path><path d="M407.8 900L442.5 900L438.3 893.7Z" fill="#053457" stroke="#053457"></path><path d="M438.3 893.7L442.5 900L469 856Z" fill="#093c5f" stroke="#093c5f"></path><path d="M675 55.3L637.3 29L617 108.7Z" fill="#216d94" stroke="#216d94"></path><path d="M-44.2 720L-37.2 761L0 744.3Z" fill="#25759d" stroke="#25759d"></path><path d="M-11.5 774.7L0 802.7L40.8 744.3Z" fill="#297ea6" stroke="#297ea6"></path><path d="M159 891L196.5 815.3L128.5 854.7Z" fill="#124c71" stroke="#124c71"></path><path d="M219 927.7L275.5 915.7L251.5 900Z" fill="#022d4e" stroke="#022d4e"></path><path d="M380 900.7L423.5 932.7L407.8 900Z" fill="#124c71" stroke="#124c71"></path><path d="M275.5 915.7L353 917.3L318 900Z" fill="#25759d" stroke="#25759d"></path><path d="M28.5 0L0 34L21.5 47.7Z" fill="#124c71" stroke="#124c71"></path><path d="M21.5 47.7L0 34L8.5 104.7Z" fill="#297ea6" stroke="#297ea6"></path><path d="M0 124.7L-22.2 16.3L-38.2 304.3Z" fill="#053457" stroke="#053457"></path><path d="M131.8 888L159 891L128.5 854.7Z" fill="#093c5f" stroke="#093c5f"></path><path d="M675 87.7L693.5 153.3L740.3 0Z" fill="#053457" stroke="#053457"></path><path d="M675 87.7L675 55.3L617 108.7Z" fill="#216d94" stroke="#216d94"></path><path d="M584.3 826.3L641.5 808.3L584.3 825.3Z" fill="#25759d" stroke="#25759d"></path><path d="M605.3 859L641.5 808.3L584.3 826.3Z" fill="#022d4e" stroke="#022d4e"></path><path d="M591.8 860.7L584.3 826.3L555.5 845.7Z" fill="#25759d" stroke="#25759d"></path><path d="M0 -58.7L41.8 0L56.3 0Z" fill="#1e648c" stroke="#1e648c"></path><path d="M56.3 0L41.8 0L21.5 47.7Z" fill="#1a5c83" stroke="#1a5c83"></path><path d="M110.8 -48.7L96.8 -33.3L150.3 0Z" fill="#022d4e" stroke="#022d4e"></path><path d="M-37.2 761L0 802.7L-11.5 774.7Z" fill="#053457" stroke="#053457"></path><path d="M54.3 847.3L107.5 872L71.3 821Z" fill="#0e4468" stroke="#0e4468"></path><path d="M54.3 847.3L71.3 821L59 827.7Z" fill="#022d4e" stroke="#022d4e"></path><path d="M147.3 900.7L176.3 900L159 891Z" fill="#1e648c" stroke="#1e648c"></path><path d="M159 891L176.3 900L196.5 815.3Z" fill="#053457" stroke="#053457"></path><path d="M578.5 -56.7L373.8 -9.7L470.5 -10.7Z" fill="#022d4e" stroke="#022d4e"></path><path d="M181 -39.7L154.3 -61.7L150.3 0Z" fill="#053457" stroke="#053457"></path><path d="M0 814.3L54.3 847.3L59 827.7Z" fill="#053457" stroke="#053457"></path><path d="M147.3 900.7L131.8 888L73.8 900Z" fill="#0e4468" stroke="#0e4468"></path><path d="M107.5 872L131.8 888L128.5 854.7Z" fill="#022d4e" stroke="#022d4e"></path><path d="M176.3 900L216.8 916.3L223.8 888.7Z" fill="#216d94" stroke="#216d94"></path><path d="M275.5 915.7L219 927.7L353 917.3Z" fill="#25759d" stroke="#25759d"></path><path d="M180.8 914.7L216.8 916.3L176.3 900Z" fill="#022d4e" stroke="#022d4e"></path><path d="M0 -18.3L28.5 0L0 -58.7Z" fill="#16547a" stroke="#16547a"></path><path d="M41.8 0L28.5 0L21.5 47.7Z" fill="#216d94" stroke="#216d94"></path><path d="M0 0L28.5 0L0 -18.3Z" fill="#16547a" stroke="#16547a"></path><path d="M423.5 932.7L492 900L442.5 900Z" fill="#216d94" stroke="#216d94"></path><path d="M442.5 900L492 900L469 856Z" fill="#1e648c" stroke="#1e648c"></path><path d="M0 802.7L0 812L59 827.7Z" fill="#25759d" stroke="#25759d"></path><path d="M-37.2 761L0 812L0 802.7Z" fill="#297ea6" stroke="#297ea6"></path><path d="M154.3 -61.7L110.8 -48.7L150.3 0Z" fill="#297ea6" stroke="#297ea6"></path><path d="M-37.2 761L0 814.3L0 812Z" fill="#1e648c" stroke="#1e648c"></path><path d="M0 812L0 814.3L59 827.7Z" fill="#216d94" stroke="#216d94"></path><path d="M675 810L665.3 802.3L675 825.7Z" fill="#25759d" stroke="#25759d"></path><path d="M641.5 808.3L665.3 802.3L601.8 770.3Z" fill="#1a5c83" stroke="#1a5c83"></path><path d="M675 725.3L686.5 786.7L675 722.7Z" fill="#093c5f" stroke="#093c5f"></path><path d="M693.3 600L704.3 900L738.3 288Z" fill="#297ea6" stroke="#297ea6"></path><path d="M73.8 900L131.8 888L107.5 872Z" fill="#1e648c" stroke="#1e648c"></path><path d="M131.8 888L147.3 900.7L159 891Z" fill="#1e648c" stroke="#1e648c"></path><path d="M665.3 802.3L686.5 786.7L675 725.3Z" fill="#0e4468" stroke="#0e4468"></path><path d="M576.8 900L591.8 860.7L555.5 845.7Z" fill="#25759d" stroke="#25759d"></path><path d="M665.3 802.3L675 810L686.5 786.7Z" fill="#1a5c83" stroke="#1a5c83"></path><path d="M147.3 900.7L180.8 914.7L176.3 900Z" fill="#297ea6" stroke="#297ea6"></path><path d="M637.3 29L637.8 0L587 0Z" fill="#022d4e" stroke="#022d4e"></path><path d="M587 0L578.5 -56.7L521.8 0Z" fill="#25759d" stroke="#25759d"></path><path d="M675 0L637.8 0L637.3 29Z" fill="#1a5c83" stroke="#1a5c83"></path><path d="M180.8 914.7L219 927.7L216.8 916.3Z" fill="#0e4468" stroke="#0e4468"></path><path d="M216.8 916.3L219 927.7L241.8 900Z" fill="#124c71" stroke="#124c71"></path><path d="M596.8 865L605.3 859L591.8 860.7Z" fill="#297ea6" stroke="#297ea6"></path><path d="M591.8 860.7L605.3 859L584.3 826.3Z" fill="#216d94" stroke="#216d94"></path><path d="M576.8 900L596.8 865L591.8 860.7Z" fill="#16547a" stroke="#16547a"></path><path d="M353 917.3L423.5 932.7L380 900.7Z" fill="#216d94" stroke="#216d94"></path><path d="M492 900L532.3 900L487.3 827Z" fill="#1e648c" stroke="#1e648c"></path><path d="M219 927.7L423.5 932.7L353 917.3Z" fill="#124c71" stroke="#124c71"></path><path d="M423.5 932.7L532.3 900L492 900Z" fill="#1a5c83" stroke="#1a5c83"></path><path d="M675 825.7L641.5 808.3L605.3 859Z" fill="#124c71" stroke="#124c71"></path><path d="M675 825.7L665.3 802.3L641.5 808.3Z" fill="#093c5f" stroke="#093c5f"></path><path d="M28.5 0L41.8 0L0 -58.7Z" fill="#216d94" stroke="#216d94"></path><path d="M28.5 0L0 0L0 34Z" fill="#25759d" stroke="#25759d"></path><path d="M0 34L-22.2 16.3L8.5 104.7Z" fill="#25759d" stroke="#25759d"></path><path d="M0 0L-22.2 16.3L0 34Z" fill="#022d4e" stroke="#022d4e"></path><path d="M0 0L-22.5 14L-22.2 16.3Z" fill="#297ea6" stroke="#297ea6"></path><path d="M-22.2 16.3L-22.5 14L-38.2 304.3Z" fill="#16547a" stroke="#16547a"></path><path d="M637.8 0L578.5 -56.7L587 0Z" fill="#16547a" stroke="#16547a"></path><path d="M616 891.3L675 825.7L605.3 859Z" fill="#216d94" stroke="#216d94"></path><path d="M675 810L675 825.7L686.5 786.7Z" fill="#297ea6" stroke="#297ea6"></path><path d="M616 891.3L605.3 859L596.8 865Z" fill="#1a5c83" stroke="#1a5c83"></path><path d="M0 -58.7L56.3 0L96.8 -33.3Z" fill="#1a5c83" stroke="#1a5c83"></path><path d="M0 0L0 -18.3L-22.5 14Z" fill="#16547a" stroke="#16547a"></path><path d="M0 -58.7L96.8 -33.3L110.8 -48.7Z" fill="#0e4468" stroke="#0e4468"></path><path d="M147.3 900.7L24.5 924.3L180.8 914.7Z" fill="#0e4468" stroke="#0e4468"></path><path d="M180.8 914.7L24.5 924.3L219 927.7Z" fill="#093c5f" stroke="#093c5f"></path><path d="M54.3 847.3L64.5 893.7L107.5 872Z" fill="#0e4468" stroke="#0e4468"></path><path d="M0 900L64.5 893.7L54.3 847.3Z" fill="#1a5c83" stroke="#1a5c83"></path><path d="M740.3 0L693.5 153.3L717.3 229.7Z" fill="#093c5f" stroke="#093c5f"></path><path d="M675 55.3L675 0L637.3 29Z" fill="#297ea6" stroke="#297ea6"></path><path d="M637.8 0L715.3 -66.7L578.5 -56.7Z" fill="#093c5f" stroke="#093c5f"></path><path d="M64.5 893.7L73.8 900L107.5 872Z" fill="#25759d" stroke="#25759d"></path><path d="M577 910.7L576.8 900L532.3 900Z" fill="#0e4468" stroke="#0e4468"></path><path d="M532.3 900L576.8 900L555.5 845.7Z" fill="#0e4468" stroke="#0e4468"></path><path d="M66 900L69.5 900L64.5 893.7Z" fill="#0e4468" stroke="#0e4468"></path><path d="M64.5 893.7L69.5 900L73.8 900Z" fill="#022d4e" stroke="#022d4e"></path><path d="M73.8 900L24.5 924.3L147.3 900.7Z" fill="#0e4468" stroke="#0e4468"></path><path d="M24.5 924.3L66 900L64.5 893.7Z" fill="#093c5f" stroke="#093c5f"></path><path d="M69.5 900L24.5 924.3L73.8 900Z" fill="#297ea6" stroke="#297ea6"></path><path d="M423.5 932.7L577 910.7L532.3 900Z" fill="#0e4468" stroke="#0e4468"></path><path d="M576.8 900L616 891.3L596.8 865Z" fill="#1e648c" stroke="#1e648c"></path><path d="M577 910.7L616 891.3L576.8 900Z" fill="#0e4468" stroke="#0e4468"></path><path d="M-37.2 761L-23.2 871.3L0 814.3Z" fill="#022d4e" stroke="#022d4e"></path><path d="M0 814.3L-23.2 871.3L54.3 847.3Z" fill="#124c71" stroke="#124c71"></path><path d="M-38.2 894.7L-23.2 871.3L-37.2 761Z" fill="#297ea6" stroke="#297ea6"></path><path d="M154.3 -61.7L0 -58.7L110.8 -48.7Z" fill="#022d4e" stroke="#022d4e"></path><path d="M0 -18.3L0 -58.7L-22.5 14Z" fill="#297ea6" stroke="#297ea6"></path><path d="M-23.2 871.3L0 900L54.3 847.3Z" fill="#25759d" stroke="#25759d"></path><path d="M66 900L24.5 924.3L69.5 900Z" fill="#1a5c83" stroke="#1a5c83"></path><path d="M738.3 288L740.3 0L717.3 229.7Z" fill="#16547a" stroke="#16547a"></path><path d="M675 0L715.3 -66.7L637.8 0Z" fill="#25759d" stroke="#25759d"></path><path d="M-23.2 871.3L-12.2 900L0 900Z" fill="#297ea6" stroke="#297ea6"></path><path d="M0 900L24.5 924.3L64.5 893.7Z" fill="#1e648c" stroke="#1e648c"></path><path d="M-12.2 900L24.5 924.3L0 900Z" fill="#16547a" stroke="#16547a"></path><path d="M219 927.7L24.5 924.3L423.5 932.7Z" fill="#297ea6" stroke="#297ea6"></path><path d="M740.3 0L729.3 -14.3L675 0Z" fill="#297ea6" stroke="#297ea6"></path><path d="M687.5 900L675 900L675 918.3Z" fill="#1a5c83" stroke="#1a5c83"></path><path d="M675 918.3L675 900L616 891.3Z" fill="#25759d" stroke="#25759d"></path><path d="M616 891.3L675 900L675 825.7Z" fill="#1e648c" stroke="#1e648c"></path><path d="M675 825.7L704.3 900L686.5 786.7Z" fill="#297ea6" stroke="#297ea6"></path><path d="M686.5 786.7L704.3 900L693.3 600Z" fill="#216d94" stroke="#216d94"></path><path d="M-23.2 871.3L-38.2 894.7L-12.2 900Z" fill="#1a5c83" stroke="#1a5c83"></path><path d="M-12.2 900L-38.2 894.7L24.5 924.3Z" fill="#25759d" stroke="#25759d"></path><path d="M-44.2 720L-38.2 894.7L-37.2 761Z" fill="#16547a" stroke="#16547a"></path><path d="M675 918.3L616 891.3L577 910.7Z" fill="#1a5c83" stroke="#1a5c83"></path><path d="M675 900L687.5 900L675 825.7Z" fill="#1a5c83" stroke="#1a5c83"></path><path d="M423.5 932.7L675 918.3L577 910.7Z" fill="#16547a" stroke="#16547a"></path><path d="M699.3 904.7L704.3 900L687.5 900Z" fill="#297ea6" stroke="#297ea6"></path><path d="M687.5 900L704.3 900L675 825.7Z" fill="#022d4e" stroke="#022d4e"></path><path d="M675 918.3L699.3 904.7L687.5 900Z" fill="#1a5c83" stroke="#1a5c83"></path><path d="M740.3 0L715.3 -66.7L729.3 -14.3Z" fill="#1a5c83" stroke="#1a5c83"></path><path d="M729.3 -14.3L715.3 -66.7L675 0Z" fill="#053457" stroke="#053457"></path><path d="M578.5 -56.7L715.3 -66.7L154.3 -61.7Z" fill="#0e4468" stroke="#0e4468"></path></g></svg>